<?xml version="1.0" encoding="utf-8"?>
<!-- Generator: Adobe Illustrator 26.1.0, SVG Export Plug-In . SVG Version: 6.00 Build 0)  -->
<svg version="1.1" id="レイヤー_1" xmlns="http://www.w3.org/2000/svg" xmlns:xlink="http://www.w3.org/1999/xlink" x="0px"
   y="0px" viewBox="0 0 370.3 73.4" style="enable-background:new 0 0 370.3 73.4;" xml:space="preserve">
<style type="text/css">
  .st0{fill:#c49c61;}
</style>
<g id="a">
</g>
<g id="b">
  <g id="c">
    <g>
      <path class="st0" d="M185.1,39.9c-0.2,10.7-6.4,17.8-9.6,17.4c0.7,2.4,4.2,4,6.5,2.4c0,3.5,0.2,12.3,3.1,13.8
        c3-1.5,3.1-10.3,3.1-13.8c2.3,1.6,5.8,0,6.5-2.4C191.6,57.7,185.4,50.6,185.1,39.9L185.1,39.9z"/>
      <path class="st0" d="M185.1,0c-3.9,2-4.1,13.8-4.1,18.4c-3-2.1-10.7-1.4-11.1,3.2c5.1-0.5,14.9,8.9,15.2,23.2
        c0.3-14.3,10.1-23.8,15.2-23.2c-0.4-4.6-8.1-5.3-11.1-3.2C189.2,13.8,189,2,185.1,0L185.1,0z"/>
      <path class="st0" d="M181.8,43.5c0,0,1.5,0.8,3.3,0.8s3.3-0.8,3.3-0.8s-1.5-0.8-3.3-0.8S181.8,43.5,181.8,43.5z"/>
      <path class="st0" d="M298.5,45.2c-4.3-0.7-6.7,1.8-5.5,6.1c0.6,1.8,2.4,2.8,4.2,3c3.7,0.8,7.7-0.9,9.2-4.3c2-4.4,1.4-11-2.5-14.2
        c-6.7-4.8-15.4-0.7-20.8,4.3c-4.4,3.9-8.7,8.1-13.6,11.4c-5.1,3.4-11,6-17.1,6.9c-9.9,1.4-22-0.7-27.5-10
        c-2.2-3.9-2.5-8.9-0.5-13c3.1-6.3,11.7-8.7,17.6-4.7c6.6,3.7,4.2,14.9-3.8,14.2c-1.1-0.1-2.2-0.5-3.1-1.4c-1-0.8-2.7-4.1-0.7-4.5
        c0.8-0.1,1.4,0.6,1.2,1.4c-0.6,4.3,5.6,4.4,7.2,1.3c4.2-8-5.8-12.5-12-8.3c-6.2,4.1-4.9,13.2,0,18.1c2.5,2.7,6,4.7,9.8,5.6
        c7.7,2.1,15.6-0.7,21.5-5.7c6.2-4.9,11.8-10.6,18.9-14.3c8-4.5,23.1-7.7,28.6,1.8c5,9.5-2.6,18.4-12.7,16.5
        c-2.1-0.3-4.2-1.5-5-3.6c-0.7-2.1-0.9-4.5,0.4-6.4c1.4-1.9,3.9-2.5,6.1-2.8C300.6,42.4,300.6,45.4,298.5,45.2L298.5,45.2
        L298.5,45.2z"/>
      <path class="st0" d="M281.5,33.5c-17.6-0.2-28.7,16.4-43.4,23.7c-5.1,2.7-10.8,4.3-16.6,4.3c-14.8,0.4-30.5-8-28-24.9
        c0.7-6,6-10.9,12.2-10.6c2.3-0.1,4.9,0.1,7.1,1.3c1,0.5,1.9,1.2,2.9,1.8c1.4,0.9,1.7,2.8,0.8,4.2c-0.9,1.4-2.8,1.7-4.2,0.8
        c-0.8-0.5-1.2-1.4-1.3-2.3c-0.2-2.6-2.8-4-5.3-4.2c-13.3-1-14.8,17.2-7.2,24.8c5.7,6.4,14.8,8.3,23,8.2
        c11.5-0.1,21.2-7.1,29.7-14.2c6.6-5.4,13.3-11.3,21.6-14.1c2.8-0.9,5.8-1.5,8.8-1.6c0.8,0,1.5,0.6,1.5,1.4
        C283.1,32.8,282.4,33.5,281.5,33.5L281.5,33.5L281.5,33.5z"/>
      <polygon class="st0" points="370.3,44.4 320,47.6 320,41.3       "/>
      <path class="st0" d="M71.7,42.5c2.2,0.3,4.6,0.9,6,2.8c1.9,2.7,1.2,7-1.6,8.9c-6.7,3.8-17.2-0.6-17.2-9
        c0.1-16.1,20.2-14.1,30.2-8.2c7.1,3.7,12.7,9.4,18.9,14.3c5.9,5,13.8,7.8,21.5,5.7c3.8-0.9,7.2-2.9,9.8-5.6c4.9-5,6.2-14,0-18.1
        c-6.1-4.2-16.2,0.3-12,8.3c1.6,3.1,7.9,3,7.2-1.3c-0.1-0.6,0.2-1.2,0.8-1.3c0.8-0.2,1.6,0.5,1.3,1.3c-0.3,2.4-2.3,4.4-4.6,4.5
        c-3.3,0.5-6.7-2-7.4-5.3c-2.4-9,9.8-13.5,16.4-9.1c6.3,3.3,7.7,12.2,4.2,18c-3.1,5.6-9.4,8.8-15.4,9.8
        c-12.2,2.4-24.8-2.4-34-10.3c-7.3-5.8-14-15.2-24.3-14.1c-3.6,0.3-7.1,2.8-8.1,6.3c-2.2,7,0.9,15.9,9.6,14.2
        c1.8-0.3,3.6-1.2,4.2-3c0.5-1.7,0.5-3.9-0.7-5c-1.1-1.1-3-1.4-4.8-1.1C69.7,45.4,69.7,42.3,71.7,42.5L71.7,42.5L71.7,42.5z"/>
      <path class="st0" d="M88.7,30.5C107,31,117.9,48.1,132.8,56c4.9,2.7,10.4,4.4,16,4.5c14.3,0.6,30-7.3,27.3-23.8
        c-0.5-2.7-1.8-5.3-3.9-7c-3-2.5-7.9-3.2-11.2-0.9c-1,0.7-1.6,1.8-1.6,3c-0.4,4-6.2,3.6-6-0.4c0.1-1.2,0.8-2.1,1.8-2.6
        c2.7-2.1,6.2-3,9.5-2.7c10.4-0.2,14.2,10.4,11.8,19.2c-3.1,11.8-16.4,16.6-27.6,16.3c-11.8,0.1-21.9-6.9-30.7-13.9
        c-4.5-3.5-8.9-7-13.7-9.8c-4.8-2.7-10.1-4.5-15.6-4.3C86.8,33.5,86.7,30.5,88.7,30.5L88.7,30.5L88.7,30.5z"/>
      <polygon class="st0" points="0,44.4 50.3,47.6 50.3,41.3       "/>
    </g>
  </g>
</g>
</svg>
