<?xml version="1.0" encoding="UTF-8"?><svg xmlns="http://www.w3.org/2000/svg" viewBox="0 0 200.3 73.45"><defs><style>.d{fill:#c49c61;}</style></defs><g id="a"/><g id="b"><g id="c"><g><path class="d" d="M15.17,33.52c.25-10.71,6.42-17.79,9.63-17.38-.74-2.39-4.2-3.95-6.51-2.39,0-3.46-.16-12.27-3.13-13.75-2.96,1.48-3.13,10.29-3.13,13.75-2.31-1.56-5.76,0-6.51,2.39,3.21-.41,9.39,6.67,9.63,17.38h.02Z"/><path class="d" d="M15.17,73.45c3.85-1.98,4.07-13.76,4.07-18.38,3,2.09,10.68,1.42,11.12-3.19-5.06,.54-14.86-8.92-15.18-23.22-.32,14.31-10.12,23.76-15.18,23.22,.43,4.61,8.12,5.28,11.12,3.19,0,4.62,.21,16.4,4.07,18.38h-.02Z"/><path class="d" d="M18.5,29.95s-1.49-.78-3.34-.78-3.34,.78-3.34,.78c0,0,1.49,.78,3.34,.78s3.34-.78,3.34-.78"/><path class="d" d="M128.57,30.91c-2.2-.27-4.61-.87-6.05-2.76-1.86-2.74-1.16-7.04,1.61-8.88,6.72-3.78,17.25,.59,17.19,8.95-.1,16.12-20.22,14.1-30.19,8.24-7.1-3.69-12.73-9.38-18.91-14.29-5.92-4.98-13.83-7.76-21.52-5.68-3.77,.9-7.23,2.9-9.77,5.6-4.89,4.95-6.23,13.96,.03,18.1,6.15,4.24,16.16-.34,11.96-8.31-1.62-3.11-7.85-2.98-7.19,1.3,.15,.59-.21,1.19-.8,1.34-.78,.22-1.55-.55-1.34-1.34,.28-2.41,2.29-4.38,4.65-4.54,3.33-.46,6.66,2.02,7.35,5.32,2.43,9.01-9.84,13.48-16.38,9.1-6.26-3.35-7.68-12.16-4.21-17.97,3.14-5.62,9.44-8.75,15.43-9.85,12.2-2.41,24.77,2.39,34.02,10.32,7.33,5.75,13.96,15.16,24.34,14.11,3.64-.27,7.12-2.8,8.07-6.31,2.23-6.96-.87-15.89-9.61-14.24-1.82,.26-3.56,1.24-4.18,3.02-.51,1.68-.45,3.85,.68,4.97,1.12,1.15,3.04,1.36,4.81,1.1,2.03-.21,2.07,2.89,0,2.69l.01,.01Z"/><path class="d" d="M111.58,42.9c-18.26-.48-29.15-17.59-44.05-25.48-4.9-2.67-10.38-4.36-15.98-4.45-14.29-.63-30.03,7.32-27.26,23.75,.52,2.72,1.8,5.31,3.92,7.02,3.01,2.46,7.92,3.16,11.18,.94,.98-.73,1.58-1.79,1.65-2.95,.37-3.98,6.2-3.59,6.04,.4-.06,1.2-.83,2.07-1.78,2.62-2.69,2.11-6.25,2.98-9.51,2.73-10.45,.2-14.24-10.42-11.81-19.2,3.13-11.82,16.44-16.57,27.58-16.31,11.78-.15,21.93,6.93,30.74,13.94,4.48,3.48,8.89,7.05,13.73,9.79,4.82,2.73,10.15,4.5,15.56,4.3,1.94-.03,2.03,2.92,0,2.91l-.01-.01Z"/><polygon class="d" points="200.3 29 150.01 25.86 150.01 32.15 200.3 29"/></g></g></g></svg>