<?xml version="1.0" encoding="UTF-8"?><svg xmlns="http://www.w3.org/2000/svg" viewBox="0 0 506.15 101.1"><defs><style>.d{fill:#040000;}.e{fill:#c9a063;}</style></defs><g id="a"/><g id="b"><g id="c"><g><g><g><polygon class="e" points="223.2 13.14 217.9 7.85 223.2 2.56 228.49 7.85 223.2 13.14"/><polygon class="e" points="235.75 13.14 230.46 7.85 235.75 2.56 241.05 7.85 235.75 13.14"/><g><path class="d" d="M244.58,34.87h-.29c-1.14-.12-1.55-.37-1.55-1.95h0V15.95h-20.65c-1.56,0-1.81-.41-1.93-1.55v-.29l-.98-.2v.33c0,.65,.08,1.46,.08,1.95v7.09c0,.49-.08,1.3-.08,1.95v.33l.98-.2v-.29c.1-.94,.48-1.74,1.35-1.81,6.62,.61,9.56,4.06,10.24,9.66,0,1.16-.67,1.83-1.81,1.95h-.28l-.2,.98h.33c.65,0,1.47-.08,1.95-.08h.18v.02h10.82c.49,0,1.15,.07,1.71,.07h.33l-.2-.98Z"/><path class="d" d="M191.91,20.42V11.06h.02c0-1.82,.47-2.1,1.78-2.24h.33l.23-1.12h-.37c-.65,0-1.42,.07-1.98,.09h-14.84c-.56-.02-1.32-.09-1.96-.09h-.37l.23,1.12h.33c1.31,.14,1.78,.42,1.78,2.24v8.67c0,6.98-6.22,8.53-6.23,8.53-.18-.01-.36,0-.45,0-.83,0-1.54-.86-1.65-1.92v-.33l-1.12-.23v.37c0,.75,.09,1.68,.09,2.24v5.84c0,.06,.01,.14,.04,.23-.02,.09-.04,.17-.04,.23v6.03c0,.56-.09,1.49-.09,2.24v.37l1.12-.23v-.33c.13-1.18,.68-1.67,1.85-1.76,3.19,.02,6.62,2.77,6.62,8.94v28.53l14.84-10.43v-18.3c0-4.51,3.12-9.08,7.71-9.08s8.92,4.17,8.92,8.68c0,7.36-.07,10.92-5.24,11.79-1.37,.21-1.87-.57-2-1.81v-.33l-1.12-.23v.37c0,.75,.09,1.26,.09,1.82v.4h0v12.37c-.02,.57-.09,1.36-.09,2.01v.37l1.12-.23v-.33c.14-1.31,.42-1.78,2.24-1.78h19.5V28.26h-25.1s-5.79-1.26-6.17-7.85Z"/></g></g><g><rect class="e" x="121.34" y="57.33" width="7.48" height="7.48" transform="translate(-6.55 106.33) rotate(-45)"/><path class="d" d="M154.17,25.42v-.37l-1.12,.23v.33c-.14,1.31-.42,1.78-2.24,1.78h-14.08l9.7-9.69h0c1.29-1.28,1.82-1.15,2.84-.33,.1,.1,.23,.23,.23,.23l.96-.63-.26-.26c-.53-.53-1.26-1.12-1.65-1.52l-7.69-7.69c-.4-.4-.99-1.12-1.52-1.65l-.26-.26-.63,.96s.13,.13,.23,.23c.79,.97,.93,1.51-.17,2.67l-3.75,3.75v-4.96c.02-.57,.09-1.38,.09-2.05v-.37l-1.12,.23v.33c-.14,1.28-.42,1.75-2.14,1.77h-6.33c-1.93,0-3.49-1.47-3.49-3.4l.03-1.19c.14-1.12,.64-1.34,1.73-1.46h.33l.23-1.12h-.37c-.75,0-1.68,.09-2.24,.09h-13.15c-.56,0-1.49-.09-2.24-.09h-.37l.23,1.12h.33c1.31,.14,1.78,.42,1.78,2.24h0v.41c-.01,1.93-1.57,3.4-3.41,3.4h-12.78c-1.77-.01-2.05-.48-2.19-1.77v-.33l-1.12-.23v.37c0,.75,.09,1.68,.09,2.24v9.84c0,.56-.09,1.5-.09,2.24v.37l1.12-.23v-.33c.14-1.31,.42-1.78,2.24-1.78h10.62c3.11-.01,5.63,1.3,5.63,4.41s-2.52,4.42-5.63,4.42h-15.2c-1.82,0-2.1-.47-2.24-1.78v-.33l-1.12-.23v.37c0,.64,.07,1.41,.09,1.97h0v10.4c-.02,.56-.09,1.32-.09,1.96v.37l1.12-.23v-.33c.13-1.27,.42-1.74,2.08-1.77h22.98l-29.65,29.65,16.12,.05,8.82-8.82v.59s-.06,0-.08,0v16.31h0c0,1.82-.47,2.1-1.78,2.24h-.33l-.23,1.12h.37c.75,0,1.68-.09,2.24-.09h6.35s.03,0,.04,0h23.43s.03,0,.04,0h9.19c.56,0,1.49,.09,2.24,.09h.37l-.23-1.12h-.33c-1.31-.14-1.78-.42-1.78-2.24h0v-29.96h0c0-1.82,.47-2.1,1.78-2.24h.33l.23-1.12h-.37c-.72,0-1.6,.08-2.16,.09h-23.29l4.83-4.55h24.64c1.67,.03,1.95,.5,2.08,1.77v.33l1.12,.23v-.37c0-.68-.07-1.49-.09-2.06v-10.21c.01-.57,.09-1.38,.09-2.06Zm-19.8,35.59c0,5.15-4.14,9.19-9.2,9.19s-9.19-4.05-9.19-9.19,4.05-9.19,9.19-9.19,9.2,4.14,9.2,9.19Zm-12.61-38.23c0-3.11,2.52-4.42,5.63-4.42h2.2l-7.01,7.01c-.52-.66-.82-1.52-.82-2.59Z"/></g><path class="d" d="M69.55,48.95c-1.28-.14-1.75-.42-1.77-2.13V28.7c.02-1.71,.49-1.99,1.77-2.13h.33l.23-1.12h-.37c-.66,0-1.46,.07-2.03,.09h-24.58l14.58-14.01h.05v-.05h0V1.86H9.84v.12c-.36-.28-.49-.73-.56-1.42V.23l-1.12-.23V.37c0,.75,.09,1.68,.09,2.24V11.25c0,.56-.09,1.49-.09,2.24v.37l1.12-.23v-.33c.14-1.31,.42-1.78,2.24-1.78H31.17c2.31,.17,4.14,1.28,4.14,3.63s-1.99,4.45-4.45,4.45c-1.95,0-3.59-1.27-4.19-3.01,0-.39,.23-.76,.62-1.24,.1-.1,.23-.23,.23-.23l-.63-.96-.27,.26c-.53,.53-1.12,1.26-1.52,1.65l-4.84,4.84c-.4,.4-1.12,.99-1.65,1.52l-.27,.26,.96,.63s.13-.13,.23-.23c.87-.7,1.39-.89,2.32-.14l2.58,2.58H2.4c-.57-.02-1.36-.09-2.03-.09h-.37l.23,1.12h.33c1.31,.14,1.78,.42,1.78,2.24h0v17.9h0c0,1.82-.47,2.1-1.78,2.24H.23l-.23,1.12H.37c.75,0,1.68-.09,2.24-.09H11.81s.02,0,.03,0h2.54c1.19,.09,2.3,1.31,2.3,2.51,0,1.29-1.1,2.3-2.3,2.3H4.54c-1.75-.01-2.03-.49-2.17-1.77v-.33l-1.12-.23v.37c0,.65,.07,1.43,.09,2v6.82c-.02,.56-.09,1.34-.09,2v.37l1.12-.23v-.33c.13-1.27,.42-1.74,2.08-1.77h5.32c3.77,.09,6.9,1.45,6.9,5.22v9.89c-.05,1.56-.53,1.83-1.77,1.96h-.33l-.23,1.12h.37c.68,0,1.5-.08,2.07-.09h15.07c.57,.01,1.39,.09,2.07,.09h.37l-.23-1.12h-.33c-1.31-.14-1.78-.42-1.78-2.24h-.02v-9.26c0-3.77,5.26-5.57,9.12-5.57s8.31,2.08,8.31,5.85c0,3.09-2.01,4.56-4.74,5.14-.62-.4-1.05-1.12-1.13-1.83v-.33l-1.12-.23v.37c0,.75,.09,1.68,.09,2.24v6.61c0,.56-.09,1.5-.09,2.24v.37l1.12-.23v-.33c.14-1.28,.42-1.75,2.15-1.77h22.11v-25H34.16c-1.19,0-2.21-1.01-2.21-2.3,0-1.2,1.01-2.51,2.3-2.51h33.52c.56,.02,1.32,.08,1.96,.08h.37l-.23-1.12h-.33ZM19.28,32.02h6.9c1.19,0,2.3,1.1,2.3,2.3,0,1.29-1.1,2.3-2.3,2.3h-6.9c-1.29,0-2.3-1.01-2.3-2.3,0-1.19,1.01-2.3,2.3-2.3Zm0,9.29h6.9c1.19,0,2.3,1.01,2.3,2.3,0,1.19-1.1,2.3-2.3,2.3h-6.9c-1.29,0-2.3-1.1-2.3-2.3,0-1.29,1.01-2.3,2.3-2.3Zm31.55,4.6h-6.9c-1.29,0-2.3-1.1-2.3-2.3,0-1.29,1.01-2.3,2.3-2.3h6.9c1.2,0,2.3,1.01,2.3,2.3,0,1.19-1.1,2.3-2.3,2.3Zm0-9.29h-6.9c-1.29,0-2.3-1.01-2.3-2.3,0-1.19,1.01-2.3,2.3-2.3h6.9c1.2,0,2.3,1.1,2.3,2.3,0,1.29-1.1,2.3-2.3,2.3Z"/><g><path class="d" d="M56.08,93.54v-.11c-.04-.42-.14-.57-.74-.57h-2.29v5.66c0,.59,.15,.68,.57,.72h.11l.09,.36h-.14c-.24,0-.54-.03-.72-.03h-1.92c-.18,0-.48,.03-.72,.03h-.14l.09-.36h.11c.42-.05,.56-.14,.56-.72v-5.66h-2.29c-.59,0-.68,.15-.72,.57v.11l-.36,.09v-.14c0-.24,.03-.54,.03-.72v-1.92c0-.18-.03-.48-.03-.72v-.12l.36,.08v.11c.05,.42,.14,.57,.72,.57h6.7c.6,0,.69-.15,.74-.57v-.11l.36-.08v.12c0,.24-.03,.54-.03,.72v1.92c0,.18,.03,.48,.03,.72v.14l-.36-.09Z"/><path class="d" d="M72.84,99.61c-.24,0-.54-.03-.72-.03h-1.92c-.18,0-.48,.03-.72,.03h-.14l.09-.36h.11c.42-.05,.57-.14,.57-.72v-2.72h-2.19v2.72c0,.59,.15,.68,.57,.72h.11l.08,.36h-.12c-.24,0-.54-.03-.72-.03h-1.93c-.18,0-.48,.03-.72,.03h-.12l.08-.36h.11c.42-.05,.57-.14,.57-.72v-6.7c0-.59-.15-.68-.57-.72h-.11l-.08-.36h.12c.24,0,.54,.03,.72,.03h1.93c.18,0,.48-.03,.72-.03h.12l-.08,.36h-.11c-.42,.04-.57,.14-.57,.72v2.37h2.19v-2.37c0-.59-.15-.68-.57-.72h-.11l-.09-.36h.14c.24,0,.54,.03,.72,.03h1.92c.18,0,.48-.03,.72-.03h.14l-.08,.36h-.12c-.42,.04-.56,.14-.56,.72v6.7c0,.59,.14,.68,.56,.72h.12l.08,.36h-.14Z"/><path class="d" d="M88.29,100.26v-.11c-.05-.42-.15-.57-.74-.57h-2.75l-1.69,1.52v-5.03c-.54,.02-.65,.15-.69,.57v.11l-.36,.08v-.12c0-.24,.03-.54,.03-.72v-1.63c0-.18-.03-.48-.03-.72v-.14l.36,.08v.12c.05,.41,.15,.54,.69,.56v-3.49h4.44c.59,0,.69-.15,.74-.57v-.11l.36-.08v.12c0,.24-.05,.54-.05,.72v1.75c0,.14,.03,.33,.03,.53l-.39-.11c-.08-.24-.24-.32-.69-.32h-2.32v1.54h2.32c.59,0,.69-.21,.74-.44,.02-.06,0-.12,0-.12l.36-.08v.14c0,.24-.05,.54-.05,.72v1.51c0,.18,.05,.36,.05,.6v.12l-.36-.08s.02-.06,0-.11c-.05-.29-.15-.45-.74-.45h-2.32v1.55h2.32c.45,0,.62-.08,.69-.32l.39-.11c0,.2-.03,.39-.03,.53v1.75c0,.18,.05,.48,.05,.72v.12l-.36-.08Z"/><path class="d" d="M115.86,100.26v-.11c-.05-.42-.15-.57-.74-.57h-2.76l-1.69,1.52v-9.28c0-.59-.15-.68-.57-.72h-.11l-.08-.36h.12c.24,0,.54,.03,.72,.03h1.93c.18,0,.48-.03,.72-.03h.12l-.08,.36h-.11c-.42,.04-.57,.14-.57,.72v5.64h2.34c.59,0,.69-.15,.74-.57v-.11l.36-.08v.12c0,.24-.03,.54-.03,.72v1.93c0,.18,.03,.48,.03,.72v.12l-.36-.08Z"/><path class="d" d="M130.97,100.26v-.11c-.05-.42-.15-.57-.74-.57h-2.75l-1.69,1.52v-5.03c-.54,.02-.65,.15-.69,.57v.11l-.36,.08v-.12c0-.24,.03-.54,.03-.72v-1.63c0-.18-.03-.48-.03-.72v-.14l.36,.08v.12c.05,.41,.15,.54,.69,.56v-3.49h4.44c.59,0,.69-.15,.74-.57v-.11l.36-.08v.12c0,.24-.05,.54-.05,.72v1.75c0,.14,.03,.33,.03,.53l-.39-.11c-.08-.24-.24-.32-.69-.32h-2.32v1.54h2.32c.59,0,.69-.21,.74-.44,.02-.06,0-.12,0-.12l.36-.08v.14c0,.24-.05,.54-.05,.72v1.51c0,.18,.05,.36,.05,.6v.12l-.36-.08s.02-.06,0-.11c-.05-.29-.15-.45-.74-.45h-2.32v1.55h2.32c.45,0,.62-.08,.69-.32l.39-.11c0,.2-.03,.39-.03,.53v1.75c0,.18,.05,.48,.05,.72v.12l-.36-.08Z"/><path class="d" d="M145.36,99.81c-2.55,0-4.63-2.07-4.63-4.63s2.08-4.63,4.63-4.63c1.07,0,1.92,.33,2.6,.8,0,.71,.04,1.86,.04,2.49h-.36c-.08-.29-.8-1.34-2.28-1.34s-2.69,1.21-2.69,2.69,1.21,2.69,2.69,2.69c.38,0,.74-.08,1.09-.21v-1.49h-.17c-.59,0-.69,.14-.74,.56v.12l-.36,.08v-.14c0-.24,.05-.54,.05-.72v-1.39h3.14v4.04c-.91,.75-1.93,1.1-3,1.1Z"/><path class="d" d="M163.56,100.26v-.11c-.05-.42-.15-.57-.74-.57h-2.75l-1.69,1.52v-5.03c-.54,.02-.65,.15-.69,.57v.11l-.36,.08v-.12c0-.24,.03-.54,.03-.72v-1.63c0-.18-.03-.48-.03-.72v-.14l.36,.08v.12c.05,.41,.15,.54,.69,.56v-3.49h4.44c.59,0,.69-.15,.74-.57v-.11l.36-.08v.12c0,.24-.05,.54-.05,.72v1.75c0,.14,.03,.33,.03,.53l-.39-.11c-.08-.24-.24-.32-.69-.32h-2.32v1.54h2.32c.59,0,.69-.21,.74-.44,.02-.06,0-.12,0-.12l.36-.08v.14c0,.24-.05,.54-.05,.72v1.51c0,.18,.05,.36,.05,.6v.12l-.36-.08s.02-.06,0-.11c-.05-.29-.15-.45-.74-.45h-2.32v1.55h2.32c.45,0,.62-.08,.69-.32l.39-.11c0,.2-.03,.39-.03,.53v1.75c0,.18,.05,.48,.05,.72v.12l-.36-.08Z"/><path class="d" d="M181.68,99.61c-.24,0-.54-.03-.72-.03h-1.68c-.18,0-.48,.03-.72,.03h-.14l.09-.36h.11c.42-.05,.57-.14,.57-.72v-.08l-3.27-3.29v3.37c0,.59,.15,.68,.57,.72h.11l.08,.36h-.12c-.24,0-.54-.03-.72-.03h-1.69c-.18,0-.48,.03-.72,.03h-.12l.08-.36h.11c.42-.05,.57-.14,.57-.72v-6.7c0-.59-.15-.68-.57-.72h-.11l-.08-.36h.12c.24,0,.54,.03,.72,.03h1.69c.18,0,.48-.03,.72-.03h.12l-.08,.36h-.11c-.42,.04-.57,.14-.57,.72v.06l3.27,3.27v-3.33c0-.59-.15-.68-.57-.72h-.11l-.09-.36h.14c.24,0,.54,.03,.72,.03h1.68c.18,0,.48-.03,.72-.03h.14l-.08,.36h-.12c-.42,.04-.56,.14-.56,.72v6.7c0,.59,.14,.68,.56,.72h.12l.08,.36h-.14Z"/><path class="d" d="M194.43,99.64c-.66,0-1.45-.06-1.45-.06h-1.27c-.18,0-.48,.03-.72,.03h-.12l.08-.36h.11c.42-.05,.57-.14,.57-.72v-6.7c0-.59-.15-.68-.57-.72h-.11l-.08-.36h.12c.24,0,.54,.03,.72,.03h1.03s1.04-.06,1.69-.06c2.46,0,4.47,2.01,4.47,4.47s-2.01,4.47-4.47,4.47Zm-.18-7.14h-.51v5.34h.51c1.46,0,2.66-1.19,2.66-2.67s-1.19-2.67-2.66-2.67Z"/><path class="d" d="M217.3,99.04c-.2,.11-.5,.21-.65,.3l-1.71,.91c-.15,.09-.39,.26-.62,.38l-.12,.06-.09-.36s.06-.03,.09-.04c.36-.24,.42-.41,.17-.92l-.41-.83h-4.09l-.41,.83c-.26,.5-.2,.68,.15,.92,.05,.02,.11,.04,.11,.04l-.11,.36-.12-.06c-.21-.12-.45-.29-.6-.38l-1.71-.91c-.17-.09-.45-.2-.65-.3l-.12-.06,.24-.29s.06,.03,.09,.06c.39,.14,.57,.14,.84-.39l4.32-8.1,4.33,8.1c.27,.53,.44,.53,.84,.39,.03-.03,.09-.06,.09-.06l.24,.29-.12,.06Zm-5.39-4.66l-1.12,2.28h2.25l-1.13-2.28Z"/><path class="d" d="M234.86,99.61c-.24,0-.54-.03-.72-.03h-2.07l-3.5-3.5h-.18v2.44c0,.59,.15,.68,.57,.72h.11l.08,.36h-.12c-.24,0-.54-.03-.72-.03h-1.93c-.18,0-.48,.03-.72,.03h-.12l.08-.36h.11c.42-.05,.57-.14,.57-.72v-6.7c0-.59-.15-.68-.57-.72h-.11l-.08-.36h.12c.24,0,.54,.03,.72,.03h1.93c.18,0,.72-.03,.94-.03,1.48,0,2.67,1.19,2.67,2.66,0,.89-.42,1.66-1.07,2.14l2.97,2.99c.65,.63,.72,.69,1,.72,.05,.02,.11,0,.11,0l.09,.36h-.14Zm-5.96-7.36h-.51v2.29h.51c.62,0,1.15-.51,1.15-1.15s-.53-1.15-1.15-1.15Z"/><path class="d" d="M251.43,92.58s-.03-.04-.08-.08c-.33-.26-.5-.3-.91,.12l-3.08,3.06v2.84c0,.59,.15,.68,.57,.72h.11l.09,.36h-.14c-.24,0-.54-.03-.72-.03h-1.92c-.18,0-.48,.03-.72,.03h-.14l.09-.36h.11c.42-.05,.56-.14,.56-.72v-2.84l-3.08-3.06c-.41-.42-.57-.38-.91-.12-.05,.03-.08,.08-.08,.08l-.32-.2,.09-.09c.17-.17,.41-.36,.54-.48l1.34-1.37c.14-.12,.32-.36,.5-.53l.09-.09,.2,.32s-.04,.04-.08,.06c-.27,.35-.3,.51,.12,.94l2.63,2.63,2.63-2.63c.42-.42,.39-.59,.12-.94-.03-.02-.08-.06-.08-.06l.2-.32,.09,.09c.18,.17,.36,.41,.5,.53l1.34,1.37c.14,.12,.38,.32,.54,.48l.09,.09-.32,.2Z"/><path class="d" d="M279.57,99.61c-.24,0-.54-.03-.72-.03h-1.92c-.18,0-.48,.03-.72,.03h-.14l.09-.36h.11c.42-.05,.57-.14,.57-.72v-2.72h-2.19v2.72c0,.59,.15,.68,.57,.72h.11l.08,.36h-.12c-.24,0-.54-.03-.72-.03h-1.93c-.18,0-.48,.03-.72,.03h-.12l.08-.36h.11c.42-.05,.57-.14,.57-.72v-6.7c0-.59-.15-.68-.57-.72h-.11l-.08-.36h.12c.24,0,.54,.03,.72,.03h1.93c.18,0,.48-.03,.72-.03h.12l-.08,.36h-.11c-.42,.04-.57,.14-.57,.72v2.37h2.19v-2.37c0-.59-.15-.68-.57-.72h-.11l-.09-.36h.14c.24,0,.54,.03,.72,.03h1.92c.18,0,.48-.03,.72-.03h.14l-.08,.36h-.12c-.42,.04-.56,.14-.56,.72v6.7c0,.59,.14,.68,.56,.72h.12l.08,.36h-.14Z"/><path class="d" d="M295.02,100.26v-.11c-.04-.42-.15-.57-.74-.57h-2.75l-1.69,1.52v-5.03c-.54,.02-.65,.15-.69,.57v.11l-.36,.08v-.12c0-.24,.03-.54,.03-.72v-1.63c0-.18-.03-.48-.03-.72v-.14l.36,.08v.12c.04,.41,.15,.54,.69,.56v-3.49h4.44c.59,0,.69-.15,.74-.57v-.11l.36-.08v.12c0,.24-.05,.54-.05,.72v1.75c0,.14,.03,.33,.03,.53l-.39-.11c-.08-.24-.24-.32-.69-.32h-2.32v1.54h2.32c.59,0,.69-.21,.74-.44,.01-.06,0-.12,0-.12l.36-.08v.14c0,.24-.05,.54-.05,.72v1.51c0,.18,.05,.36,.05,.6v.12l-.36-.08s.01-.06,0-.11c-.04-.29-.15-.45-.74-.45h-2.32v1.55h2.32c.45,0,.62-.08,.69-.32l.39-.11c0,.2-.03,.39-.03,.53v1.75c0,.18,.05,.48,.05,.72v.12l-.36-.08Z"/><path class="d" d="M314.1,99.61c-.24,0-.54-.03-.72-.03h-2.07l-3.5-3.5h-.18v2.44c0,.59,.15,.68,.57,.72h.11l.08,.36h-.12c-.24,0-.54-.03-.72-.03h-1.93c-.18,0-.48,.03-.72,.03h-.12l.08-.36h.11c.42-.05,.57-.14,.57-.72v-6.7c0-.59-.15-.68-.57-.72h-.11l-.08-.36h.12c.24,0,.54,.03,.72,.03h1.93c.18,0,.72-.03,.94-.03,1.48,0,2.67,1.19,2.67,2.66,0,.89-.42,1.66-1.07,2.14l2.97,2.99c.65,.63,.72,.69,1,.72,.04,.02,.11,0,.11,0l.09,.36h-.14Zm-5.96-7.36h-.51v2.29h.51c.62,0,1.15-.51,1.15-1.15s-.53-1.15-1.15-1.15Z"/><path class="d" d="M325.9,99.81c-2.55,0-4.63-2.07-4.63-4.63s2.08-4.63,4.63-4.63,4.63,2.07,4.63,4.63-2.07,4.63-4.63,4.63Zm-.68-7.32c-.98,.24-1.77,1.03-2.01,2.01h2.01v-2.01Zm0,3.37h-2.01c.26,.98,1.03,1.77,2.01,2.01v-2.01Zm1.36-3.37v2.01h2.02c-.26-.98-1.03-1.77-2.02-2.01Zm0,3.37v2.01c1-.24,1.78-1.03,2.02-2.01h-2.02Z"/><path class="d" d="M355.25,99.61c-.24,0-.54-.03-.72-.03h-1.93c-.18,0-.48,.03-.72,.03h-.12l.08-.36h.11c.42-.05,.57-.14,.57-.72v-6.7c0-.59-.15-.68-.57-.72h-.11l-.08-.36h.12c.24,0,.54,.03,.72,.03h1.93c.18,0,.48-.03,.72-.03h.12l-.08,.36h-.11c-.42,.04-.57,.14-.57,.72v6.7c0,.59,.15,.68,.57,.72h.11l.08,.36h-.12Z"/><path class="d" d="M367.68,99.79c-1.07,0-1.98-.33-2.59-1.09,0-.44-.02-1.72-.02-2.16l.38-.02c.3,.98,1.12,1.45,1.98,1.45,.57,0,1-.32,1-.74,0-.45-.26-.72-.85-1.04l-.95-.57c-1.09-.65-1.51-1.39-1.51-2.46,0-1.34,.91-2.57,2.82-2.57,.89,0,1.51,.23,1.95,.56,0,.57-.02,1.15-.02,1.9l-.33,.08c-.18-.53-.68-.92-1.37-.92-.57,0-1.04,.3-1.04,.75,0,.36,.15,.57,.72,.91l1.22,.74c.88,.53,1.51,1.22,1.51,2.49,0,1.74-1.54,2.69-2.9,2.69Z"/><path class="d" d="M395.02,99.64c-.66,0-1.45-.06-1.45-.06h-1.27c-.18,0-.48,.03-.72,.03h-.12l.08-.36h.11c.42-.05,.57-.14,.57-.72v-6.7c0-.59-.15-.68-.57-.72h-.11l-.08-.36h.12c.24,0,.54,.03,.72,.03h1.03s1.04-.06,1.69-.06c2.46,0,4.47,2.01,4.47,4.47s-2.01,4.47-4.47,4.47Zm-.18-7.14h-.51v5.34h.51c1.46,0,2.66-1.19,2.66-2.67s-1.19-2.67-2.66-2.67Z"/><path class="d" d="M414.84,100.26v-.11c-.04-.42-.15-.57-.74-.57h-2.75l-1.69,1.52v-5.03c-.54,.02-.65,.15-.69,.57v.11l-.36,.08v-.12c0-.24,.03-.54,.03-.72v-1.63c0-.18-.03-.48-.03-.72v-.14l.36,.08v.12c.04,.41,.15,.54,.69,.56v-3.49h4.44c.59,0,.69-.15,.74-.57v-.11l.36-.08v.12c0,.24-.05,.54-.05,.72v1.75c0,.14,.03,.33,.03,.53l-.39-.11c-.08-.24-.24-.32-.69-.32h-2.32v1.54h2.32c.59,0,.69-.21,.74-.44,.01-.06,0-.12,0-.12l.36-.08v.14c0,.24-.05,.54-.05,.72v1.51c0,.18,.05,.36,.05,.6v.12l-.36-.08s.01-.06,0-.11c-.04-.29-.15-.45-.74-.45h-2.32v1.55h2.32c.45,0,.62-.08,.69-.32l.39-.11c0,.2-.03,.39-.03,.53v1.75c0,.18,.05,.48,.05,.72v.12l-.36-.08Z"/><path class="d" d="M434.48,99.04c-.2,.11-.5,.21-.65,.3l-1.71,.91c-.15,.09-.39,.26-.62,.38l-.12,.06-.09-.36,.09-.04c.36-.24,.42-.41,.17-.92l-.41-.83h-4.09l-.41,.83c-.26,.5-.2,.68,.15,.92,.04,.02,.11,.04,.11,.04l-.11,.36-.12-.06c-.21-.12-.45-.29-.6-.38l-1.71-.91c-.17-.09-.45-.2-.65-.3l-.12-.06,.24-.29s.06,.03,.09,.06c.39,.14,.57,.14,.84-.39l4.32-8.1,4.33,8.1c.27,.53,.44,.53,.84,.39,.03-.03,.09-.06,.09-.06l.24,.29-.12,.06Zm-5.39-4.66l-1.12,2.28h2.25l-1.13-2.28Z"/><path class="d" d="M446.27,99.64c-.66,0-1.45-.06-1.45-.06h-1.27c-.18,0-.48,.03-.72,.03h-.12l.08-.36h.11c.42-.05,.57-.14,.57-.72v-6.7c0-.59-.15-.68-.57-.72h-.11l-.08-.36h.12c.24,0,.54,.03,.72,.03h1.03s1.04-.06,1.69-.06c2.46,0,4.47,2.01,4.47,4.47s-2.01,4.47-4.47,4.47Zm-.18-7.14h-.51v5.34h.51c1.46,0,2.66-1.19,2.66-2.67s-1.19-2.67-2.66-2.67Z"/><path class="d" d="M461.18,96.56l-.24,.24-.24-.24-1.25-4.78,1.49-1.49,1.49,1.49-1.25,4.78Zm-.24,3.43l-1.27-1.27,1.27-1.27,1.27,1.27-1.27,1.27Z"/></g><g><path class="d" d="M300.92,43.96l-7.41-7.43-14.89-14.95c-.06-.06-.11-.11-.17-.18h48.94c1.82,.01,2.1,.48,2.24,1.79v.33l1.12,.23v-.38c0-.66-.07-1.46-.09-2.03V7.87c.02-.57,.09-1.36,.09-2.03v-.37l-1.12,.23v.33c-.14,1.31-.42,1.78-2.24,1.78h-64.18c-1.82,0-2.1-.47-2.24-1.78v-.33l-1.12-.23v.38c0,.75,.09,1.68,.09,2.24v13.04c0,.56-.09,1.5-.09,2.24v.37l1.12-.23v-.33c.14-1.31,.42-1.78,2.24-1.78h13.66c.43,.62,.46,1.11-.15,1.87l-21.19,21.26h0c-1.29,1.29-1.82,1.16-2.84,.33-.1-.1-.23-.23-.23-.23l-.96,.63,.27,.26c.53,.53,1.26,1.12,1.65,1.52l7.76,7.75c.4,.4,.99,1.12,1.52,1.65l.26,.27,.63-.96s-.13-.13-.23-.23c-.82-1.01-.73-1.99,.48-2.55,1.65-.66,3.57-.31,4.94,1.05l.09,.09c1.75,1.84,1.75,4.69,0,6.53l-15.55,15.74h16.36l29.4-29.92c.8-.77,1.31-.95,1.85-.74m-22.59,3.76l-5.29-5.29,5.29-5.29,5.29,5.29-5.29,5.29Z"/><rect class="e" x="317.49" y="32.7" width="10.02" height="10.02" transform="translate(67.8 239.1) rotate(-45)"/></g><g><g><path class="d" d="M458.31,32.83c1.82,0,2.1,.47,2.24,1.78v.33l1.12,.23v-.38c0-.75-.09-1.68-.09-2.24v-11.86c0-.56,.09-1.5,.09-2.24v-.37l-1.12,.23v.33c-.13,1.18-.38,1.68-1.78,1.76h-9.62c-4.5,0-8.27-3.68-8.27-8.28v-.86c0-1.82,.47-2.1,1.78-2.24h.33l.23-1.12h-.37c-.68,0-1.49,.07-2.06,.09h-14.06c-.56,0-1.49-.09-2.24-.09h-.37l.23,1.12h.33c1.31,.14,1.78,.42,1.78,2.24h0v.86c0,4.22-3.18,7.65-7.18,8.19-1.76-.01-2.04-.48-2.18-1.77v-.33l-1.12-.23v.37c0,.72,.09,1.61,.09,2.17v12.15c0,.57-.09,1.45-.09,2.17v.37l1.12-.23v-.33c.14-1.28,.42-1.75,2.14-1.77,4.02,.53,7.22,4.05,7.22,8.2v29.83h0c0,1.82-.47,2.1-1.78,2.24h-.33l-.23,1.12h.37c.75,0,1.68-.09,2.24-.09h13.88c.56,0,1.49,.09,2.24,.09h.37l-.23-1.12h-.33c-1.3-.14-1.77-.42-1.78-2.22v-29.85c0-4.5,3.77-8.28,8.27-8.28h9.15v.02Z"/><path class="d" d="M480.33,37.1v-.38l-1.12,.23v.33c-.14,1.31-.42,1.78-2.24,1.78h-18.3c-1.82,0-2.11-.47-2.24-1.78v-.33l-1.12-.23v.38c0,.75,.09,1.68,.09,2.24v9.73c0,.56-.09,1.49-.09,2.24v.37l1.12-.23v-.33c.13-1.26,.41-1.73,2.06-1.77h18.67c1.64,.03,1.92,.51,2.06,1.77v.33l1.12,.23v-.37c0-.75-.09-1.68-.09-2.24v-9.73c0-.56,.09-1.5,.09-2.24Z"/><path class="d" d="M479.2,62.11c-.14,1.3-.42,1.77-2.22,1.77h-5.02c-3.43,0-6.35-2.05-7.61-5.01h0c-.47-1.31,.06-2.06,1.78-2.24h.33l.23-1.12h-.37c-.75,0-1.68,.09-2.24,.09h-8.38c-.56,0-1.49-.09-2.24-.09h-.37l.23,1.12h.33c1.25,.13,1.72,.41,1.77,2.01v15.54h21.64c1.73,.02,2.01,.49,2.15,1.77v.33l1.12,.23v-.37c0-.66-.07-1.46-.09-2.03v-10.17c.02-.57,.09-1.36,.09-2.03v-.37l-1.12,.23v.33Z"/></g><rect class="e" x="459.9" y="6.88" width="7.48" height="7.48" transform="translate(128.32 330.98) rotate(-45.01)"/><rect class="e" x="472.44" y="6.88" width="7.48" height="7.48" transform="translate(131.99 339.85) rotate(-45.01)"/></g><g><path class="d" d="M498.1,55.02l-1.55,1.18-1.55-1.18-8.05-37.56,9.61-12.67,9.61,12.67-8.05,37.56Z"/><rect class="e" x="490.62" y="61.94" width="11.85" height="11.85" transform="translate(97.45 371) rotate(-45)"/></g><path class="d" d="M407.25,38.93c-.75,0-1.68,.09-2.24,.09h-11.59c-.56,0-1.49-.09-2.24-.09h-.37l.23,1.12h.33c1.31,.14,1.77,.42,1.77,2.24h0v2.98c0,3.4-2.76,6.16-6.16,6.16s-6.25-2.76-6.25-6.16v-12.14h-14.71c-2.3,0-4.14-1.84-4.14-4.14V13.22c.02-1.7,.5-1.99,1.77-2.12h.33l.23-1.12h-.37c-.65,0-1.43,.07-1.99,.09h-14.46c-.56-.02-1.34-.09-1.99-.09h-.37l.23,1.12h.33c1.28,.14,1.75,.42,1.77,2.15v57.91c-.02,1.72-.49,2-1.77,2.14h-.33l-.23,1.12h.37c.75,0,1.68-.09,2.24-.09h13.96c.56,0,1.49,.09,2.24,.09h.37l-.23-1.12h-.33c-1.28-.14-1.75-.42-1.77-2.13v-11.45c0-3.4,2.76-6.16,6.16-6.16s6.25,2.76,6.25,6.16v14.53h30.98v-31.94h0c0-1.82,.47-2.1,1.78-2.24h.33l.23-1.12h-.37Z"/></g><path class="d" d="M298.09,45.72v30.92h32.58v-17.25c.05-.37,.32-2.11,1.77-2.39,.14-.03,.33,0,.33,0l.23-1.12h-.37c-.64,0-1.39,.07-1.95,.09h-12.59c-.56,0-1.49-.09-2.24-.09h-.37l.23,1.12s.19,0,.33,0c1.98,.05,2.32,2.09,2.37,2.55-.35,2.32-1.23,3.37-3.01,3.3-2.57,0-3.59-2.02-3.59-4.6V28.56c.09-1.36,.58-1.61,1.76-1.74h.33l.23-1.12h-.37c-.75,0-1.68,.09-2.24,.09h-13.11c-.56,0-1.49-.09-2.24-.09h-.37l.23,1.12h.33c1.23,.13,1.71,.4,1.76,1.94v15.19"/></g></g></g></svg>