<?xml version="1.0" encoding="UTF-8"?><svg xmlns="http://www.w3.org/2000/svg" viewBox="0 0 254.641 214.986"><defs><style>.d{fill:#040000;}.e{fill:#c9a063;}</style></defs><g id="a"/><g id="b"><g id="c"><g><g><g><g><polygon class="e" points="229.25 13.137 223.955 7.851 229.25 2.563 234.544 7.851 229.25 13.137"/><polygon class="e" points="241.807 13.137 236.512 7.851 241.807 2.563 247.101 7.851 241.807 13.137"/><g><path class="d" d="M250.636,34.871h-.287c-1.14-.121-1.548-.366-1.548-1.953h-.001V15.947h-20.648c-1.562-.005-1.808-.414-1.929-1.546v-.285l-.978-.203v.326c0,.651,.082,1.464,.082,1.952v7.093c0,.487-.082,1.302-.082,1.952v.326l.978-.203v-.285c.101-.941,.479-1.745,1.348-1.811,6.616,.615,9.56,4.057,10.245,9.658-.002,1.157-.666,1.828-1.806,1.949h-.284l-.204,.978h.327c.651,0,1.467-.082,1.954-.082h.176v.017h10.822v-.009c.49,.017,1.155,.075,1.712,.075h.326l-.203-.978Z"/><path class="d" d="M197.965,20.418V11.056h.017c0-1.822,.468-2.103,1.776-2.243h.327l.233-1.122h-.374c-.646,0-1.417,.068-1.979,.087v-.002h-14.838c-.562-.019-1.324-.085-1.963-.085h-.374l.233,1.122h.328c1.308,.14,1.776,.421,1.776,2.243v8.675c0,6.976-6.223,8.531-6.228,8.532-.185-.013-.365-.002-.446-.002-.832,.004-1.54-.862-1.653-1.925v-.328l-1.122-.233v.375c0,.747,.094,1.683,.094,2.242v5.843c0,.062,.014,.14,.036,.228-.022,.088-.036,.166-.036,.228v6.033c0,.56-.094,1.494-.094,2.241v.375l1.122-.233v-.327c.125-1.18,.679-1.672,1.847-1.758,3.194,.015,6.62,2.773,6.62,8.936v28.534l14.838-10.434v-18.301c0-4.506,3.118-9.079,7.715-9.079s8.917,4.171,8.917,8.677c0,7.363-.07,10.919-5.236,11.791-1.371,.208-1.872-.575-2.003-1.81v-.327l-1.122-.233v.375c0,.748,.094,1.261,.094,1.82v.402h-.007v12.366c-.017,.565-.087,1.356-.087,2.014v.375l1.122-.234v-.327c.139-1.308,.421-1.776,2.243-1.776v-.005h19.5V28.263h-25.102s-5.785-1.26-6.173-7.845Z"/></g></g><g><rect class="e" x="127.391" y="57.331" width="7.477" height="7.477" transform="translate(-4.774 110.614) rotate(-45.002)"/><path class="d" d="M160.218,25.425v-.374l-1.122,.233v.328c-.139,1.308-.421,1.776-2.243,1.776v.007h-14.08l9.7-9.7,.005,.005c1.289-1.289,1.819-1.157,2.842-.33,.099,.099,.231,.231,.231,.231l.958-.629-.264-.264c-.529-.529-1.256-1.123-1.651-1.518l-7.687-7.687c-.396-.396-.99-1.124-1.519-1.653l-.264-.264-.63,.959s.134,.133,.233,.232c.787,.975,.929,1.509-.172,2.67l-3.755,3.755v-4.961c.015-.567,.089-1.377,.089-2.049v-.374l-1.122,.233v.328c-.136,1.281-.419,1.752-2.141,1.772h-6.326c-1.928,0-3.491-1.471-3.491-3.402l.031-1.188c.14-1.117,.641-1.345,1.728-1.461h.327l.233-1.122h-.374c-.747,0-1.682,.094-2.241,.094h-13.146c-.56,0-1.495-.094-2.242-.094h-.374l.232,1.122h.329c1.308,.139,1.776,.421,1.776,2.243h.005l-.011,.406c0,1.93-1.563,3.402-3.401,3.402h-12.775c-1.767-.011-2.049-.481-2.187-1.774v-.328l-1.122-.233v.374c0,.747,.094,1.682,.094,2.242v9.841c0,.56-.094,1.495-.094,2.242v.374l1.122-.233v-.328c.139-1.308,.421-1.776,2.243-1.776v-.003h.793v-.008h9.83c3.108,0,5.629,1.315,5.629,4.423s-2.521,4.423-5.629,4.423h-.892v.008h-14.313v-.007c-1.822,0-2.104-.468-2.243-1.776v-.328l-1.122-.233v.374c0,.642,.066,1.407,.086,1.969h0v10.397c-.02,.562-.086,1.322-.086,1.96v.374l1.122-.233v-.328c.135-1.266,.416-1.74,2.084-1.77h22.984l-29.649,29.648,16.123,.046,8.82-8.82v.594c-.026,0-.057-.001-.084-.001v16.312h0c0,1.822-.467,2.104-1.775,2.243h-.328l-.233,1.122h.375c.748,0,1.683-.094,2.242-.094h6.354c.01,0,.028-.006,.039-.007h23.434c.011,0,.029,.007,.039,.007h9.189c.56,0,1.495,.094,2.242,.094h.374l-.233-1.122h-.328c-1.308-.139-1.775-.421-1.775-2.243h-.002v-29.957h.002c0-1.822,.467-2.104,1.775-2.243h.328l.233-1.122h-.374c-.717,0-1.597,.085-2.163,.092h-23.288l4.832-4.548h24.639c1.668,.03,1.95,.504,2.084,1.77v.328l1.122,.233v-.374c0-.676-.074-1.492-.089-2.058v-10.209c.015-.567,.089-1.382,.089-2.059Zm-19.803,35.591c0,5.149-4.138,9.194-9.195,9.194-5.149,0-9.194-4.045-9.194-9.194,0-5.057,4.045-9.194,9.194-9.194,5.058,0,9.195,4.137,9.195,9.194Zm-12.606-38.234c0-3.109,2.521-4.423,5.63-4.423h2.202l-7.01,7.009c-.518-.664-.822-1.517-.822-2.586Z"/></g><path class="d" d="M75.601,48.949c-1.278-.136-1.75-.418-1.772-2.129V28.703c.021-1.711,.494-1.993,1.772-2.129h.328l.233-1.123h-.374c-.664,0-1.462,.071-2.028,.088h-24.577l14.582-14.015h.049v-.047h.001V1.861H15.892v.124c-.364-.276-.487-.729-.56-1.424V.233l-1.122-.233V.374c0,.748,.094,1.682,.094,2.242V11.246c0,.56-.094,1.495-.094,2.242v.374l1.122-.233v-.328c.139-1.308,.421-1.776,2.243-1.776h19.658l-.015,.015c2.314,.159,4.143,1.262,4.143,3.617,0,2.459-1.994,4.452-4.453,4.452-1.953,0-3.593-1.265-4.192-3.014,.008-.392,.234-.763,.621-1.242,.099-.099,.231-.231,.231-.231l-.629-.958-.265,.265c-.528,.529-1.123,1.256-1.518,1.651l-4.842,4.842c-.396,.396-1.124,.99-1.653,1.518l-.265,.265,.958,.629s.134-.133,.233-.232c.871-.703,1.388-.894,2.316-.143l2.58,2.581H8.454c-.566-.017-1.363-.088-2.028-.088h-.374l.233,1.123h.328c1.308,.139,1.776,.421,1.776,2.243h.007v17.904h-.007c0,1.822-.468,2.104-1.776,2.243h-.328l-.233,1.122h.374c.748,0,1.682-.094,2.242-.094h9.189c.008,0,.022-.005,.031-.005h2.537c1.195,.092,2.298,1.313,2.298,2.508,0,1.287-1.104,2.299-2.298,2.299H10.595c-1.749-.014-2.032-.485-2.169-1.774v-.327l-1.122-.233v.374c0,.652,.068,1.432,.087,1.995v6.822c-.018,.564-.087,1.344-.087,1.996v.375l1.122-.234v-.328c.135-1.266,.416-1.739,2.084-1.769h5.318c3.77,.091,6.896,1.451,6.896,5.222v9.885c-.052,1.556-.533,1.831-1.766,1.962h-.328l-.232,1.122h.374c.681,0,1.505-.075,2.071-.089h15.074c.567,.014,1.39,.089,2.071,.089h.374l-.233-1.122h-.328c-1.308-.139-1.776-.421-1.776-2.243h-.015v-9.26c0-3.769,5.256-5.565,9.117-5.565,3.77,0,8.313,2.079,8.313,5.849,0,3.092-2.006,4.562-4.74,5.139-.617-.395-1.054-1.115-1.13-1.831v-.328l-1.122-.233v.374c0,.748,.094,1.683,.094,2.243v6.606c0,.56-.094,1.495-.094,2.243v.374l1.122-.232v-.329c.136-1.283,.419-1.754,2.149-1.772h22.11v-24.998H40.217c-1.195,0-2.206-1.012-2.206-2.299,0-1.195,1.011-2.508,2.299-2.508h33.52c.561,.019,1.321,.084,1.958,.084h.374l-.233-1.122h-.328ZM25.337,32.017h6.896c1.195,0,2.298,1.104,2.298,2.299,0,1.287-1.104,2.298-2.298,2.298h-6.896c-1.287,0-2.298-1.011-2.298-2.298,0-1.195,1.011-2.299,2.298-2.299Zm0,9.286h6.896c1.195,0,2.298,1.012,2.298,2.299,0,1.195-1.104,2.298-2.298,2.298h-6.896c-1.287,0-2.298-1.104-2.298-2.298,0-1.287,1.011-2.299,2.298-2.299Zm31.551,4.597h-6.896c-1.287,0-2.299-1.104-2.299-2.298,0-1.287,1.012-2.299,2.299-2.299h6.896c1.196,0,2.298,1.012,2.298,2.299,0,1.195-1.103,2.298-2.298,2.298Zm0-9.287h-6.896c-1.287,0-2.299-1.011-2.299-2.298,0-1.195,1.012-2.299,2.299-2.299h6.896c1.196,0,2.298,1.104,2.298,2.299,0,1.287-1.103,2.298-2.298,2.298Z"/><g><path class="d" d="M49.414,129.915l-7.407-7.433-14.894-14.954c-.056-.059-.11-.115-.171-.182h48.941v.011c1.823,0,2.104,.468,2.243,1.777v.327l1.122,.234v-.375c0-.664-.071-1.461-.088-2.027v-13.466c.017-.566,.088-1.364,.088-2.027v-.374l-1.122,.233v.327c-.139,1.308-.421,1.777-2.243,1.777H11.706c-1.822,0-2.104-.468-2.243-1.777v-.327l-1.122-.234v.375c0,.747,.094,1.682,.094,2.242v13.037c0,.56-.094,1.496-.094,2.242v.374l1.122-.232v-.328c.139-1.308,.421-1.777,2.243-1.777v-.011h13.657c.429,.636,.46,1.125-.145,1.884l-21.186,21.264h0c-1.288,1.289-1.818,1.159-2.842,.331-.099-.098-.231-.231-.231-.231l-.959,.63,.265,.264c.529,.529,1.257,1.124,1.653,1.519l7.757,7.748c.396,.396,.991,1.123,1.519,1.651l.265,.265,.628-.958s-.133-.134-.232-.233c-.819-1.013-.73-1.989,.476-2.553,1.652-.661,3.573-.314,4.937,1.051l.092,.091c1.747,1.84,1.747,4.689,0,6.529l-15.552,15.743,16.356,.011,29.396-29.936c.801-.767,1.31-.948,1.855-.736m-22.587,3.755l-5.287-5.287,5.287-5.287,5.287,5.287-5.287,5.287Z"/><rect class="e" x="65.981" y="118.662" width="10.02" height="10.02" transform="translate(-66.658 86.424) rotate(-45.001)"/></g><g><g><path class="d" d="M206.794,118.791c1.823,0,2.104,.468,2.243,1.777v.327l1.122,.234v-.375c0-.747-.094-1.682-.094-2.242v-11.857c0-.56,.094-1.495,.094-2.242v-.374l-1.122,.232v.328c-.126,1.183-.381,1.675-1.776,1.759h-9.618c-4.505,0-8.274-3.678-8.274-8.275v-.859c0-1.822,.468-2.104,1.776-2.243h.327l.234-1.122h-.375c-.676,0-1.492,.074-2.058,.089l-.896,.006h-13.166c-.56,0-1.495-.094-2.242-.094h-.374l.232,1.122h.329c1.308,.139,1.776,.421,1.776,2.243h.001v.859c0,4.217-3.176,7.652-7.178,8.193-1.762-.012-2.045-.482-2.182-1.774v-.327l-1.122-.233v.374c0,.721,.086,1.607,.092,2.172v12.147c-.006,.566-.092,1.453-.092,2.172v.374l1.122-.233v-.327c.136-1.28,.418-1.753,2.136-1.773,4.024,.532,7.224,4.049,7.224,8.198v29.832h-.002c0,1.822-.468,2.105-1.776,2.243h-.327l-.233,1.122h.375c.748,0,1.683-.094,2.241-.094h13.878c.56,0,1.495,.094,2.242,.094h.374l-.233-1.122h-.328c-1.303-.138-1.771-.421-1.775-2.223v-29.851c0-4.505,3.769-8.275,8.274-8.275h9.151v.021Z"/><path class="d" d="M228.816,123.058v-.375l-1.122,.234v.327c-.138,1.308-.421,1.776-2.243,1.776v.003h-18.297v-.003c-1.822,0-2.105-.468-2.243-1.776v-.327l-1.122-.234v.375c0,.747,.093,1.683,.093,2.242v9.734c0,.56-.093,1.495-.093,2.242v.374l1.122-.233v-.328c.133-1.258,.414-1.734,2.056-1.768h18.671c1.642,.035,1.923,.511,2.056,1.768v.328l1.122,.233v-.374c0-.748-.094-1.683-.094-2.242v-9.734c0-.56,.094-1.495,.094-2.242Z"/><path class="d" d="M227.685,148.072c-.138,1.304-.421,1.771-2.225,1.775h-5.015c-3.434,0-6.353-2.053-7.611-5.007h.008c-.469-1.313,.065-2.061,1.776-2.243h.327l.233-1.122h-.374c-.748,0-1.683,.094-2.242,.094h-8.379c-.56,0-1.495-.094-2.242-.094h-.374l.233,1.122h.328c1.245,.132,1.724,.41,1.767,2.008v15.54h21.642c1.73,.018,2.013,.489,2.149,1.772v.328l1.122,.233v-.374c0-.664-.071-1.46-.087-2.026v-10.168c.017-.566,.087-1.362,.087-2.025v-.374l-1.122,.233v.328Z"/></g><rect class="e" x="208.389" y="92.836" width="7.477" height="7.477" transform="translate(-6.15 178.303) rotate(-45.005)"/><rect class="e" x="220.929" y="92.836" width="7.477" height="7.477" transform="translate(-2.476 187.171) rotate(-45.005)"/></g><g><path class="d" d="M246.588,140.975l-1.553,1.182-1.553-1.182-8.054-37.555,9.606-12.667,9.606,12.667-8.054,37.555Z"/><rect class="e" x="239.108" y="147.897" width="11.854" height="11.854" transform="translate(-37 218.325) rotate(-45.001)"/></g><path class="d" d="M155.737,124.885c-.747,0-1.683,.094-2.241,.094h-11.589c-.56,0-1.494-.094-2.242-.094h-.374l.233,1.122h.329c1.308,.139,1.775,.421,1.775,2.243h.009v2.98c0,3.403-2.759,6.16-6.16,6.16s-6.252-2.757-6.252-6.16v-12.136h-14.71c-2.299,0-4.138-1.838-4.138-4.138v-15.783c.023-1.703,.496-1.985,1.772-2.121h.327l.234-1.122h-.375c-.65,0-1.427,.068-1.99,.086h-14.464c-.564-.019-1.34-.086-1.991-.086h-.374l.232,1.122h.329c1.283,.136,1.754,.419,1.772,2.149v57.911c-.02,1.721-.492,2.003-1.773,2.139h-.327l-.234,1.122h.375c.748,0,1.683-.094,2.241-.094h13.961c.56,0,1.495,.094,2.242,.094h.374l-.232-1.122h-.329c-1.278-.136-1.75-.418-1.771-2.131v-11.455c0-3.401,2.758-6.161,6.16-6.161,3.494,0,6.252,2.759,6.252,6.161v14.528h30.985v-31.943h.003c0-1.822,.468-2.104,1.776-2.243h.327l.233-1.122h-.375Z"/></g><path class="d" d="M46.579,131.679v30.923h32.582v-17.248c.049-.368,.324-2.11,1.766-2.392,.137-.027,.327,0,.327,0l.234-1.122h-.375c-.635,0-1.391,.065-1.951,.086v-.003h-12.075v.012h-.515c-.56,0-1.494-.095-2.242-.095h-.374l.232,1.122s.188-.003,.329,0c1.982,.048,2.32,2.092,2.372,2.547-.352,2.324-1.228,3.369-3.014,3.302-2.575,0-3.592-2.022-3.592-4.597v-29.699c.09-1.363,.585-1.612,1.758-1.736h.327l.234-1.122h-.375c-.748,0-1.683,.094-2.242,.094h-13.115c-.56,0-1.495-.094-2.242-.094h-.374l.233,1.122h.328c1.229,.131,1.71,.404,1.765,1.944v15.193"/></g><g><path class="d" d="M46.13,185.354v-.105c-.045-.423-.136-.573-.739-.573h-2.294v5.659c0,.588,.151,.679,.574,.724h.105l.09,.362h-.136c-.241,0-.543-.03-.724-.03h-1.917c-.181,0-.483,.03-.725,.03h-.136l.09-.362h.106c.422-.045,.558-.136,.558-.724v-5.659h-2.293c-.589,0-.679,.15-.725,.573v.105l-.362,.091v-.136c0-.242,.03-.544,.03-.725v-1.917c0-.181-.03-.482-.03-.724v-.121l.362,.075v.105c.045,.423,.136,.574,.725,.574h6.7c.604,0,.694-.151,.739-.574v-.105l.362-.075v.121c0,.241-.03,.543-.03,.724v1.917c0,.181,.03,.482,.03,.725v.136l-.362-.091Z"/><path class="d" d="M61.085,191.42c-.241,0-.543-.03-.724-.03h-1.917c-.181,0-.483,.03-.725,.03h-.136l.09-.362h.106c.422-.045,.573-.136,.573-.724v-2.717h-2.188v2.717c0,.588,.151,.679,.573,.724h.106l.075,.362h-.121c-.242,0-.543-.03-.725-.03h-1.932c-.181,0-.483,.03-.724,.03h-.121l.075-.362h.106c.422-.045,.573-.136,.573-.724v-6.701c0-.588-.151-.679-.573-.724h-.106l-.075-.362h.121c.241,0,.543,.03,.724,.03h1.932c.181,0,.483-.03,.725-.03h.121l-.075,.362h-.106c-.422,.045-.573,.136-.573,.724v2.369h2.188v-2.369c0-.588-.151-.679-.573-.724h-.106l-.09-.362h.136c.242,0,.543,.03,.725,.03h1.917c.181,0,.483-.03,.724-.03h.136l-.075,.362h-.121c-.423,.045-.559,.136-.559,.724v6.701c0,.588,.136,.679,.559,.724h.121l.075,.362h-.136Z"/><path class="d" d="M74.726,192.069v-.106c-.045-.422-.151-.573-.74-.573h-2.747l-1.69,1.524v-5.025c-.543,.016-.649,.151-.694,.573v.106l-.362,.075v-.121c0-.241,.03-.543,.03-.725v-1.63c0-.181-.03-.482-.03-.724v-.136l.362,.075v.121c.045,.407,.151,.543,.694,.558v-3.485h4.437c.589,0,.694-.151,.74-.574v-.105l.362-.075v.121c0,.241-.045,.543-.045,.724v1.751c0,.136,.03,.332,.03,.528l-.393-.105c-.075-.242-.241-.317-.694-.317h-2.324v1.539h2.324c.589,0,.694-.211,.74-.438,.015-.061,0-.12,0-.12l.362-.076v.136c0,.242-.045,.544-.045,.725v1.509c0,.182,.045,.362,.045,.604v.12l-.362-.075s.015-.061,0-.105c-.045-.287-.151-.453-.74-.453h-2.324v1.555h2.324c.453,0,.619-.075,.694-.317l.393-.105c0,.196-.03,.393-.03,.528v1.751c0,.181,.045,.482,.045,.724v.121l-.362-.075Z"/><path class="d" d="M98.673,192.069v-.106c-.045-.422-.151-.573-.74-.573h-2.762l-1.69,1.524v-9.281c0-.588-.151-.679-.573-.724h-.106l-.075-.362h.121c.241,0,.543,.03,.724,.03h1.932c.181,0,.483-.03,.725-.03h.121l-.075,.362h-.106c-.422,.045-.573,.136-.573,.724v5.645h2.339c.589,0,.694-.151,.74-.573v-.106l.362-.075v.121c0,.241-.03,.543-.03,.725v1.932c0,.181,.03,.482,.03,.724v.121l-.362-.075Z"/><path class="d" d="M111.967,192.069v-.106c-.045-.422-.15-.573-.739-.573h-2.747l-1.69,1.524v-5.025c-.543,.016-.649,.151-.694,.573v.106l-.362,.075v-.121c0-.241,.03-.543,.03-.725v-1.63c0-.181-.03-.482-.03-.724v-.136l.362,.075v.121c.045,.407,.151,.543,.694,.558v-3.485h4.437c.589,0,.694-.151,.739-.574v-.105l.362-.075v.121c0,.241-.045,.543-.045,.724v1.751c0,.136,.03,.332,.03,.528l-.393-.105c-.075-.242-.241-.317-.694-.317h-2.324v1.539h2.324c.589,0,.694-.211,.739-.438,.016-.061,0-.12,0-.12l.362-.076v.136c0,.242-.045,.544-.045,.725v1.509c0,.182,.045,.362,.045,.604v.12l-.362-.075s.016-.061,0-.105c-.045-.287-.15-.453-.739-.453h-2.324v1.555h2.324c.453,0,.619-.075,.694-.317l.393-.105c0,.196-.03,.393-.03,.528v1.751c0,.181,.045,.482,.045,.724v.121l-.362-.075Z"/><path class="d" d="M124.552,191.616c-2.55,0-4.633-2.067-4.633-4.633s2.083-4.633,4.633-4.633c1.071,0,1.917,.332,2.596,.8,0,.709,.045,1.856,.045,2.49h-.361c-.076-.287-.8-1.344-2.279-1.344s-2.687,1.208-2.687,2.687,1.208,2.687,2.687,2.687c.377,0,.739-.076,1.087-.212v-1.494h-.166c-.589,0-.694,.136-.739,.559v.121l-.362,.075v-.136c0-.241,.045-.543,.045-.725v-1.388h3.139v4.044c-.905,.755-1.932,1.102-3.003,1.102Z"/><path class="d" d="M140.94,192.069v-.106c-.045-.422-.151-.573-.739-.573h-2.747l-1.69,1.524v-5.025c-.543,.016-.648,.151-.693,.573v.106l-.362,.075v-.121c0-.241,.03-.543,.03-.725v-1.63c0-.181-.03-.482-.03-.724v-.136l.362,.075v.121c.045,.407,.15,.543,.693,.558v-3.485h4.438c.588,0,.694-.151,.739-.574v-.105l.362-.075v.121c0,.241-.046,.543-.046,.724v1.751c0,.136,.03,.332,.03,.528l-.392-.105c-.076-.242-.242-.317-.694-.317h-2.324v1.539h2.324c.588,0,.694-.211,.739-.438,.015-.061,0-.12,0-.12l.362-.076v.136c0,.242-.046,.544-.046,.725v1.509c0,.182,.046,.362,.046,.604v.12l-.362-.075s.015-.061,0-.105c-.045-.287-.151-.453-.739-.453h-2.324v1.555h2.324c.452,0,.618-.075,.694-.317l.392-.105c0,.196-.03,.393-.03,.528v1.751c0,.181,.046,.482,.046,.724v.121l-.362-.075Z"/><path class="d" d="M157.252,191.42c-.241,0-.544-.03-.725-.03h-1.675c-.182,0-.483,.03-.725,.03h-.136l.091-.362h.105c.422-.045,.573-.136,.573-.724v-.076l-3.274-3.29v3.366c0,.588,.15,.679,.573,.724h.105l.075,.362h-.12c-.242,0-.544-.03-.725-.03h-1.69c-.181,0-.482,.03-.725,.03h-.12l.075-.362h.105c.423-.045,.573-.136,.573-.724v-6.701c0-.588-.15-.679-.573-.724h-.105l-.075-.362h.12c.242,0,.544,.03,.725,.03h1.69c.181,0,.482-.03,.725-.03h.12l-.075,.362h-.105c-.423,.045-.573,.136-.573,.724v.061l3.274,3.274v-3.335c0-.588-.151-.679-.573-.724h-.105l-.091-.362h.136c.241,0,.543,.03,.725,.03h1.675c.181,0,.483-.03,.725-.03h.136l-.075,.362h-.121c-.423,.045-.559,.136-.559,.724v6.701c0,.588,.136,.679,.559,.724h.121l.075,.362h-.136Z"/><path class="d" d="M168.192,191.45c-.664,0-1.449-.061-1.449-.061h-1.268c-.181,0-.482,.03-.725,.03h-.12l.075-.362h.105c.423-.045,.573-.136,.573-.724v-6.701c0-.588-.15-.679-.573-.724h-.105l-.075-.362h.12c.242,0,.544,.03,.725,.03h1.026s1.041-.061,1.69-.061c2.46,0,4.467,2.007,4.467,4.467s-2.007,4.467-4.467,4.467Zm-.182-7.138h-.513v5.342h.513c1.464,0,2.656-1.192,2.656-2.671s-1.192-2.671-2.656-2.671Z"/><path class="d" d="M189.243,190.847c-.196,.105-.498,.211-.649,.302l-1.705,.905c-.151,.091-.393,.257-.619,.378l-.12,.06-.091-.362s.061-.029,.091-.045c.362-.241,.422-.407,.166-.921l-.408-.829h-4.089l-.408,.829c-.256,.498-.196,.68,.151,.921,.045,.016,.105,.045,.105,.045l-.105,.362-.121-.06c-.211-.121-.452-.287-.604-.378l-1.705-.905c-.166-.091-.453-.196-.649-.302l-.12-.061,.241-.286s.061,.029,.091,.06c.393,.136,.573,.136,.845-.392l4.316-8.104,4.331,8.104c.271,.527,.438,.527,.845,.392,.03-.03,.091-.06,.091-.06l.241,.286-.12,.061Zm-5.388-4.663l-1.117,2.278h2.249l-1.132-2.278Z"/><path class="d" d="M204.996,191.42c-.241,0-.543-.03-.724-.03h-2.067l-3.502-3.501h-.181v2.445c0,.588,.15,.679,.573,.724h.105l.076,.362h-.121c-.241,0-.543-.03-.725-.03h-1.932c-.181,0-.482,.03-.725,.03h-.12l.075-.362h.105c.423-.045,.574-.136,.574-.724v-6.701c0-.588-.151-.679-.574-.724h-.105l-.075-.362h.12c.242,0,.544,.03,.725,.03h1.932c.182,0,.725-.03,.936-.03,1.479,0,2.672,1.192,2.672,2.655,0,.891-.423,1.66-1.072,2.144l2.974,2.988c.648,.634,.724,.693,.996,.724,.045,.016,.105,0,.105,0l.09,.362h-.136Zm-5.961-7.364h-.513v2.294h.513c.619,0,1.147-.513,1.147-1.147,0-.618-.528-1.146-1.147-1.146Z"/><path class="d" d="M219.754,184.388s-.03-.045-.075-.075c-.332-.257-.498-.302-.905,.12l-3.079,3.063v2.838c0,.588,.151,.679,.573,.724h.106l.09,.362h-.136c-.241,0-.543-.03-.725-.03h-1.916c-.182,0-.483,.03-.725,.03h-.136l.091-.362h.105c.423-.045,.559-.136,.559-.724v-2.838l-3.079-3.063c-.407-.422-.573-.377-.905-.12-.045,.03-.075,.075-.075,.075l-.317-.196,.091-.091c.166-.166,.407-.361,.543-.482l1.344-1.373c.136-.121,.316-.362,.498-.528l.09-.091,.196,.317s-.045,.045-.075,.06c-.271,.348-.302,.514,.121,.937l2.625,2.625,2.626-2.625c.423-.423,.393-.589,.121-.937-.03-.015-.075-.06-.075-.06l.196-.317,.09,.091c.182,.166,.362,.407,.498,.528l1.344,1.373c.136,.121,.377,.316,.543,.482l.091,.091-.317,.196Z"/><path class="d" d="M51.812,213.492c-.241,0-.543-.03-.724-.03h-1.917c-.181,0-.483,.03-.725,.03h-.136l.091-.362h.105c.422-.045,.573-.136,.573-.725v-2.716h-2.188v2.716c0,.589,.151,.68,.573,.725h.106l.075,.362h-.121c-.242,0-.543-.03-.725-.03h-1.932c-.181,0-.483,.03-.724,.03h-.121l.075-.362h.106c.422-.045,.573-.136,.573-.725v-6.7c0-.589-.151-.679-.573-.725h-.106l-.075-.362h.121c.241,0,.543,.03,.724,.03h1.932c.181,0,.483-.03,.725-.03h.121l-.075,.362h-.106c-.422,.046-.573,.136-.573,.725v2.369h2.188v-2.369c0-.589-.151-.679-.573-.725h-.105l-.091-.362h.136c.242,0,.543,.03,.725,.03h1.917c.181,0,.483-.03,.724-.03h.136l-.075,.362h-.121c-.423,.046-.559,.136-.559,.725v6.7c0,.589,.136,.68,.559,.725h.121l.075,.362h-.136Z"/><path class="d" d="M65.453,214.141v-.105c-.045-.422-.151-.573-.74-.573h-2.747l-1.69,1.524v-5.025c-.543,.015-.649,.15-.694,.573v.105l-.362,.076v-.121c0-.241,.03-.543,.03-.725v-1.63c0-.181-.03-.482-.03-.725v-.136l.362,.076v.12c.045,.408,.151,.544,.694,.559v-3.486h4.437c.589,0,.694-.15,.74-.573v-.105l.362-.075v.12c0,.242-.045,.544-.045,.725v1.751c0,.136,.03,.332,.03,.528l-.393-.106c-.075-.241-.241-.316-.694-.316h-2.324v1.539h2.324c.589,0,.694-.211,.74-.438,.015-.061,0-.121,0-.121l.362-.075v.136c0,.241-.045,.543-.045,.725v1.509c0,.182,.045,.362,.045,.604v.121l-.362-.075s.015-.061,0-.106c-.045-.286-.151-.452-.74-.452h-2.324v1.555h2.324c.453,0,.619-.076,.694-.317l.393-.105c0,.196-.03,.393-.03,.528v1.75c0,.182,.045,.483,.045,.725v.121l-.362-.076Z"/><path class="d" d="M82.716,213.492c-.242,0-.543-.03-.725-.03h-2.067l-3.501-3.501h-.181v2.444c0,.589,.151,.68,.573,.725h.106l.075,.362h-.121c-.242,0-.543-.03-.725-.03h-1.932c-.181,0-.483,.03-.724,.03h-.121l.075-.362h.106c.422-.045,.573-.136,.573-.725v-6.7c0-.589-.151-.679-.573-.725h-.106l-.075-.362h.121c.241,0,.543,.03,.724,.03h1.932c.181,0,.725-.03,.936-.03,1.479,0,2.671,1.192,2.671,2.656,0,.891-.422,1.66-1.071,2.144l2.973,2.987c.649,.634,.725,.694,.996,.725,.045,.015,.105,0,.105,0l.091,.362h-.136Zm-5.961-7.364h-.513v2.294h.513c.619,0,1.147-.514,1.147-1.147,0-.618-.528-1.146-1.147-1.146Z"/><path class="d" d="M92.705,213.689c-2.55,0-4.633-2.067-4.633-4.633s2.083-4.633,4.633-4.633c2.565,0,4.633,2.067,4.633,4.633s-2.067,4.633-4.633,4.633Zm-.679-7.319c-.981,.241-1.766,1.026-2.007,2.007h2.007v-2.007Zm0,3.365h-2.007c.257,.981,1.026,1.766,2.007,2.007v-2.007Zm1.358-3.365v2.007h2.022c-.256-.98-1.026-1.766-2.022-2.007Zm0,3.365v2.007c.996-.241,1.781-1.025,2.022-2.007h-2.022Z"/><path class="d" d="M118.433,213.492c-.241,0-.543-.03-.725-.03h-1.932c-.181,0-.482,.03-.725,.03h-.12l.075-.362h.105c.423-.045,.574-.136,.574-.725v-6.7c0-.589-.151-.679-.574-.725h-.105l-.075-.362h.12c.242,0,.544,.03,.725,.03h1.932c.182,0,.483-.03,.725-.03h.121l-.076,.362h-.105c-.423,.046-.573,.136-.573,.725v6.7c0,.589,.15,.68,.573,.725h.105l.076,.362h-.121Z"/><path class="d" d="M129.056,213.673c-1.071,0-1.977-.332-2.596-1.086,0-.438-.015-1.721-.015-2.158l.377-.016c.302,.981,1.117,1.449,1.978,1.449,.573,0,.996-.317,.996-.739,0-.453-.257-.725-.846-1.042l-.95-.573c-1.087-.648-1.51-1.388-1.51-2.46,0-1.343,.905-2.565,2.822-2.565,.891,0,1.509,.227,1.947,.559,0,.573-.016,1.147-.016,1.901l-.332,.076c-.181-.528-.679-.921-1.373-.921-.573,0-1.041,.302-1.041,.755,0,.361,.15,.573,.724,.905l1.223,.739c.875,.528,1.509,1.223,1.509,2.49,0,1.735-1.539,2.686-2.897,2.686Z"/><path class="d" d="M152.777,213.523c-.664,0-1.449-.061-1.449-.061h-1.268c-.181,0-.482,.03-.725,.03h-.12l.075-.362h.105c.423-.045,.574-.136,.574-.725v-6.7c0-.589-.151-.679-.574-.725h-.105l-.075-.362h.12c.242,0,.544,.03,.725,.03h1.026s1.041-.06,1.69-.06c2.46,0,4.467,2.007,4.467,4.467s-2.007,4.467-4.467,4.467Zm-.182-7.139h-.513v5.343h.513c1.464,0,2.656-1.192,2.656-2.671s-1.192-2.672-2.656-2.672Z"/><path class="d" d="M170.779,214.141v-.105c-.045-.422-.151-.573-.739-.573h-2.747l-1.69,1.524v-5.025c-.543,.015-.648,.15-.693,.573v.105l-.362,.076v-.121c0-.241,.03-.543,.03-.725v-1.63c0-.181-.03-.482-.03-.725v-.136l.362,.076v.12c.045,.408,.15,.544,.693,.559v-3.486h4.438c.588,0,.694-.15,.739-.573v-.105l.362-.075v.12c0,.242-.046,.544-.046,.725v1.751c0,.136,.03,.332,.03,.528l-.392-.106c-.076-.241-.242-.316-.694-.316h-2.324v1.539h2.324c.588,0,.694-.211,.739-.438,.015-.061,0-.121,0-.121l.362-.075v.136c0,.241-.046,.543-.046,.725v1.509c0,.182,.046,.362,.046,.604v.121l-.362-.075s.015-.061,0-.106c-.045-.286-.151-.452-.739-.452h-2.324v1.555h2.324c.452,0,.618-.076,.694-.317l.392-.105c0,.196-.03,.393-.03,.528v1.75c0,.182,.046,.483,.046,.725v.121l-.362-.076Z"/><path class="d" d="M188.616,212.919c-.196,.105-.498,.211-.649,.302l-1.705,.905c-.151,.091-.393,.257-.619,.377l-.12,.061-.091-.362s.061-.03,.091-.045c.362-.241,.422-.407,.166-.921l-.408-.83h-4.089l-.408,.83c-.256,.498-.196,.68,.151,.921,.045,.015,.105,.045,.105,.045l-.105,.362-.121-.061c-.211-.12-.452-.286-.604-.377l-1.705-.905c-.166-.091-.453-.196-.649-.302l-.12-.061,.241-.287s.061,.03,.091,.061c.393,.136,.573,.136,.845-.393l4.316-8.104,4.331,8.104c.271,.528,.438,.528,.845,.393,.03-.03,.091-.061,.091-.061l.241,.287-.12,.061Zm-5.388-4.663l-1.117,2.278h2.249l-1.132-2.278Z"/><path class="d" d="M198.59,213.523c-.664,0-1.449-.061-1.449-.061h-1.268c-.181,0-.482,.03-.725,.03h-.12l.075-.362h.105c.423-.045,.574-.136,.574-.725v-6.7c0-.589-.151-.679-.574-.725h-.105l-.075-.362h.12c.242,0,.544,.03,.725,.03h1.026s1.041-.06,1.69-.06c2.46,0,4.467,2.007,4.467,4.467s-2.007,4.467-4.467,4.467Zm-.182-7.139h-.513v5.343h.513c1.464,0,2.656-1.192,2.656-2.671s-1.192-2.672-2.656-2.672Z"/><path class="d" d="M211.689,210.443l-.242,.242-.241-.242-1.252-4.783,1.493-1.494,1.494,1.494-1.252,4.783Zm-.242,3.426l-1.268-1.268,1.268-1.268,1.268,1.268-1.268,1.268Z"/></g></g></g></g></svg>