<?xml version="1.0" encoding="UTF-8"?>
<svg id="_レイヤー_2" data-name="レイヤー 2" xmlns="http://www.w3.org/2000/svg" viewBox="0 0 1000 260.65">
  <defs>
    <style>
      .cls-1 {
        fill: #c49c61;
      }
    </style>
  </defs>
  <g id="_レイヤー_1-2" data-name="レイヤー 1">
    <g>
      <g>
        <path class="cls-1" d="m105.39,112.38c-5.61,0-12.45-.39-15.09-.64v-1.42c1.74,0,2.58-.84,2.58-3.55v-35.47c0-2.32-.97-3.29-2.58-3.29v-1.42c3.03-.26,10.06-.65,15.61-.65,13.29,0,21.03,2.58,21.03,11.93,0,4.71-3.42,7.8-6.77,9.03v.06c4.77,1.42,8.51,4.39,8.51,11.22,0,9.42-7.74,14.19-23.28,14.19Zm2-37.15c-.84,0-2.19.06-2.9.13v8.19c1.42.19,2.71.19,3.61.19,5.61,0,7.68-1.29,7.68-4.39,0-2.32-1.29-4.13-8.38-4.13Zm1.61,17.29c-1.8,0-2.97,0-4.51.19v10.32c1.03.06,1.93.13,2.71.13,8.06,0,10-1.68,10-5.42,0-2.58-1.16-5.22-8.19-5.22Z"/>
        <path class="cls-1" d="m176.67,112.18c-.71-.26-2.32-.45-3.29-.45h-23.99v-1.42c1.48,0,2.13-.84,2.13-2.77v-27.99c0-1.68-.77-2.45-2.13-2.45v-1.42h14.64v1.42c-1.35,0-2.13.9-2.13,2.77v23.93h12.38c1.74,0,2.71-.64,3.35-2.26l1.48.52-2.45,10.13Z"/>
        <path class="cls-1" d="m231.47,80v20.12c0,2.19.32,4.32.77,5.03-4.58,4.77-7.93,7.68-15.54,7.68s-12.64-2.77-17.29-7.68c.58-.77.77-2.45.77-5.03v-20.32c0-2-.65-2.71-2.13-2.71v-1.42h14.64v1.42c-1.55,0-2.13.71-2.13,2.71v19.87c0,3.42,2.64,4.97,6.26,4.97,3.16,0,5.29-1.81,5.29-4.84v-19.99c0-2-.58-2.71-2.13-2.71v-1.42h13.61v1.42c-1.55,0-2.13.9-2.13,2.9Z"/>
        <path class="cls-1" d="m255.62,96.64v-7.35h16.32v7.35h-16.32Z"/>
        <path class="cls-1" d="m315.3,111.73c-1.48-2.19-3.29-7.55-3.93-10.77-1.1.06-3.16.06-4.64,0v6.45c0,2,.58,2.9,2.13,2.9v1.42h-14.71v-1.42c1.42,0,2.13-.9,2.13-2.9v-27.8c0-1.42-.77-2.51-2.13-2.51v-1.42c2.77-.13,9.74-.52,15.29-.52,8.9,0,18.71,1.94,18.71,12.71,0,5.29-3.55,8.77-7.03,10.38.71,3.03,2.45,7.61,4.45,10.45.58.9,1.1,1.61,2.77,1.61v1.42h-13.03Zm-6.06-28.57c-.58,0-1.1,0-2.52.13v10.13c.97.06,1.87.06,2.84.06,5.61,0,8-1.68,8-5.29,0-3.35-2.39-5.03-8.32-5.03Z"/>
        <path class="cls-1" d="m370.79,111.73v-1.42c1.68,0,2.19-.84,2.19-1.55,0-.39-.39-1.35-.52-1.74-1.55.45-3.61.65-5.55.65s-3.93-.19-5.61-.65c-.19.65-.52,1.42-.52,1.94,0,.77.39,1.35,1.81,1.35v1.42h-14.64v-1.42c1.48,0,1.87-.52,2.58-2.45l10.13-27.48c.19-.52.58-1.61.58-2,0-.77-.52-1.29-1.36-1.29v-1.42h14.51v1.42c-.97,0-1.29.52-1.29,1.29,0,.45.13,1.1.58,2.32l9.93,27.03c.71,1.93,1.1,2.58,2.52,2.58v1.42h-15.35Zm-3.87-24.83h-.13l-3.42,12.58c1.1.32,2.64.52,3.74.52s2.39-.13,3.29-.45l-3.48-12.64Z"/>
        <path class="cls-1" d="m434.47,79.93l-11.03,20.38v7.16c0,1.93.52,2.84,2.06,2.84v1.42h-14.64v-1.42c1.55,0,2.13-.84,2.13-2.84v-7.09l-11.09-20.32c-1.42-2.58-1.61-2.97-2.77-2.97v-1.42h15.74v1.42c-1.23,0-1.81.52-1.81,1.42,0,.32.13.77.32,1.29l5.16,11.74h.13l5.35-11.67c.26-.52.39-1.1.39-1.42,0-.58-.39-1.35-1.74-1.35v-1.42h14.51v1.42c-1.1,0-1.42.39-2.71,2.84Z"/>
        <path class="cls-1" d="m504.91,112.38c-5.61,0-12.45-.39-15.09-.64v-1.42c1.74,0,2.58-.84,2.58-3.55v-35.47c0-2.32-.97-3.29-2.58-3.29v-1.42c3.03-.26,10.06-.65,15.61-.65,13.29,0,21.03,2.58,21.03,11.93,0,4.71-3.42,7.8-6.77,9.03v.06c4.77,1.42,8.51,4.39,8.51,11.22,0,9.42-7.74,14.19-23.28,14.19Zm2-37.15c-.84,0-2.19.06-2.9.13v8.19c1.42.19,2.71.19,3.61.19,5.61,0,7.68-1.29,7.68-4.39,0-2.32-1.29-4.13-8.38-4.13Zm1.61,17.29c-1.81,0-2.97,0-4.51.19v10.32c1.03.06,1.93.13,2.71.13,8.06,0,10-1.68,10-5.42,0-2.58-1.16-5.22-8.19-5.22Z"/>
        <path class="cls-1" d="m570.53,113.21c-13.8,0-21.8-10.45-21.8-24.19,0-15.16,9.67-23.93,21.8-23.93s21.87,8.84,21.87,23.93c0,13.87-8,24.19-21.87,24.19Zm-.06-38.51c-5.29,0-9.74,4.71-9.74,14.32s3.87,14.64,9.74,14.64,9.8-5.29,9.8-14.58c0-10.32-4.58-14.38-9.8-14.38Z"/>
        <path class="cls-1" d="m636.2,111.73v-1.42c1.23,0,1.94-.52,1.94-1.35,0-.52-.19-1.35-.77-2.26l-5.35-8.64h-.13l-5.35,8.64c-.58.9-.71,1.74-.71,2.26,0,.97.77,1.35,1.87,1.35v1.42h-18v-1.42c1.74,0,2.19-.77,4.06-3.61l11.87-17.61-11.93-17.8c-1.68-2.45-2.19-3.29-3.93-3.29v-1.42h18.32v1.42c-1.03,0-1.68.52-1.68,1.68,0,.39.32,1.16.58,1.61l5.22,8.64h.07l5.16-8.32c.39-.65.52-1.29.52-1.87,0-1.1-.58-1.74-1.68-1.74v-1.42h18.25v1.42c-1.74,0-2.64.97-4.45,3.61l-11.48,17.22,11.93,17.87c1.48,2.26,2.32,3.61,4.06,3.61v1.42h-18.38Z"/>
        <path class="cls-1" d="m751.07,88.64v6h12.9v8.58h-12.9v5.03c0,2.58.19,2.9,1.74,2.9h3.55c1.48,0,1.81-1.23,2.06-6.84,2,1.48,5.8,3.03,8.38,3.61-.9,8.71-3.29,11.48-9.48,11.48h-6.32c-7.87,0-9.74-2.77-9.74-11.09v-5.1h-6.97c-1.55,6.71-6,13.03-17.61,16.83-1.16-2.13-4-5.81-5.93-7.48,7.8-2.32,11.61-5.68,13.42-9.35h-11.61v-8.58h13.22v-6h-4.71v-1.94c-2.52,1.87-5.16,3.48-8,4.84-1.23-2.13-3.81-5.35-5.68-7.03,3.35-1.42,6.51-3.35,9.42-5.74-1.55-1.48-3.81-3.35-5.55-4.77l5.87-4.84c1.55,1.1,3.61,2.58,5.22,3.93,1.1-1.35,2.06-2.77,2.97-4.26h-11.48v-8h16.06l1.61-.32,6.26,2.84c-2.06,6.39-5.16,11.87-9.16,16.45h20.06c-4.45-5.29-7.87-11.67-10.51-18.9l8.45-2.39c.77,2.13,1.68,4.19,2.77,6.13,1.68-1.61,3.35-3.42,4.52-4.9l7.03,4.9c-2.52,2.19-5.16,4.39-7.55,6.13.65.84,1.35,1.68,2.13,2.45,2.19-1.93,4.51-4.26,6.13-6.13l6.84,4.77c-2.45,2.19-5.16,4.39-7.67,6.19,2.71,2,5.68,3.74,8.9,5.03-2.19,1.87-5.1,5.61-6.51,8.13-2.58-1.22-5.03-2.71-7.22-4.39v1.81h-4.9Zm-9.8,0h-6.19v6h6.19v-6Z"/>
        <path class="cls-1" d="m817.13,94.25c-.9,12.96-3.42,21.48-22.12,25.86-.84-2.45-3.16-6.19-5.1-8.13,15.8-2.97,16.77-8.39,17.48-17.74h9.74Zm-1.68-22.77h-23.48v-8.51h23.48v-4.32h9.8v4.32h24.25v8.51h-24.25v2.9h18.32v8.13h-45.34v-8.13h17.22v-2.9Zm24.32,27.8v-6.32h-38.38v6.32h-9.03v-14.64h56.89v14.64h-9.48Zm.84,11.61c2,0,2.39-1.03,2.64-7.29,1.87,1.48,5.87,2.9,8.38,3.48-.97,9.61-3.42,12.19-10.13,12.19h-7.68c-8.51,0-10.51-2.71-10.51-10.71v-14.25h9.42v14.12c0,2.19.39,2.45,2.52,2.45h5.35Z"/>
        <path class="cls-1" d="m928.92,69.55v33.54h-9.87v-3.03h-12.45v19.74h-9.93v-19.74h-12.38v3.35h-9.42v-33.86h21.8v-11.03h9.93v11.03h22.32Zm-32.25,21.28v-12.06h-12.38v12.06h12.38Zm22.38,0v-12.06h-12.45v12.06h12.45Z"/>
        <path class="cls-1" d="m186.13,141.68c-3.05,4.93-7.21,9.09-12.19,12.58,5.49,2.11,11.69,3.66,18.34,4.6-1.83,1.83-4.1,5.38-5.21,7.59-1.44-.28-2.88-.55-4.27-.89v20.17h-8.65v-1.55h-17.85v1.77h-8.2v-20.45c-1.88.5-3.77.94-5.65,1.33-.78-2.11-2.49-5.43-3.93-7.2,6.59-1.11,13.25-2.94,19.17-5.43-1.83-1.39-3.55-2.88-5.1-4.49-2.38,2.05-4.82,3.82-7.26,5.32-1.27-1.61-4.21-4.66-5.93-6.04,7.2-3.55,14.02-9.64,17.79-16.35l7.65,2.66c-.61,1.05-1.27,2.05-1.94,3.05h16.07l1.33-.39,5.82,3.71Zm-6.98,22.94c-4.93-1.38-9.48-3.21-13.63-5.43-4.43,2.16-9.25,3.99-14.19,5.43h27.82Zm-4.99,12.53v-5.26h-17.85v5.26h17.85Zm-15.79-31.92c2.05,1.88,4.49,3.6,7.21,5.15,2.6-1.55,5.04-3.27,7.04-5.15h-14.24Z"/>
        <path class="cls-1" d="m210.89,135.25h25.71v7.04h-6.65v3.38h5.65v39.13h-6.32v-2.55h-11.53v3.33h-6.04v-39.9h6.32v-3.38h-7.15v-7.04Zm16.52,29.71c-2.55,0-3.27-.89-3.27-4.49v-8.2h-1.27v4.38c0,2.99-.39,6.93-2.49,9.59-.5-.61-1.83-1.72-2.6-2.22v3.94h11.53v-2.99h-1.88Zm-9.64-12.69v11.42c1.55-2.16,1.66-4.82,1.66-7.09v-4.32h-1.66Zm11.53,23.83v-2.72h-11.53v2.72h11.53Zm-4.49-33.81h-1.66v3.38h1.66v-3.38Zm4.49,9.98h-1.72v8.15c0,.78.05.83.33.83h.33c.5,0,.61-.06.72-.22.11.11.22.17.33.28v-9.03Zm24.22,25.38c1.88,0,2.22-1.27,2.55-8.37,1.72,1.33,5.1,2.71,7.21,3.21-.78,9.64-2.83,12.64-9.03,12.64h-6.87c-6.76,0-8.92-2.27-8.92-10.14v-22.61h14.85v-8.76h-15.07v-7.76h22.89v27.43h-7.81v-3.27h-6.87v14.91c0,2.44.28,2.72,2.22,2.72h4.88Z"/>
        <path class="cls-1" d="m301.23,135.86c-1.39,3.38-3.05,6.93-4.93,10.31v39.62h-7.65v-28.1c-1.22,1.55-2.49,2.94-3.77,4.21-.67-1.94-2.77-6.37-4.1-8.37,5.1-4.82,10.09-12.47,12.97-20.12l7.48,2.44Zm33.31,7.43v6.43h-35.47v-6.43h35.47Zm-32.2,24.38h29.48v18.07h-8.15v-1.77h-13.63v1.94h-7.7v-18.23Zm28.54-9.92h-27.49v-6.21h27.49v6.21Zm-27.49,1.83h27.21v6.21h-27.21v-6.21Zm26.49-18.12h-25.49v-6.21h25.49v6.21Zm-19.84,32.37v3.88h13.63v-3.88h-13.63Z"/>
        <path class="cls-1" d="m396.76,146.73c3.21,0,4.77-.11,6.71-.44v8.87c-1.55-.17-3.49-.17-6.65-.17h-2.99v1.77c0,13.13-3.38,21.95-17.18,27.99l-7.2-6.76c11.08-3.66,15.57-8.48,15.57-21v-2h-11.64v6.71c0,2.72.17,4.88.28,6.26h-9.37c.17-1.39.33-3.55.33-6.26v-6.71h-3.99c-2.99,0-4.66.11-6.26.22v-9.09c1.27.22,3.27.61,6.26.61h3.99v-4.6c0-2.27-.22-4.21-.39-5.54h9.53c-.17,1.33-.39,3.21-.39,5.6v4.54h11.64v-5.21c0-2.27-.11-4.1-.33-5.49h9.53c-.17,1.44-.39,3.21-.39,5.49v5.21h2.94Z"/>
        <path class="cls-1" d="m455.7,175.54c0,2.66.11,6.48.55,8.04h-10.64c.22-1.5.44-5.38.44-8.04v-16.68c-5.6,2.77-12.08,5.38-18.12,6.98l-4.77-8.15c9.92-2.05,19.23-6.1,25.44-9.98,5.6-3.49,11.31-8.42,14.46-12.64l7.2,6.48c-4.43,4.32-9.25,8.42-14.58,11.86v22.11Z"/>
        <path class="cls-1" d="m526.85,168.84c-5.6-2.88-13.19-5.82-19.06-7.93v14.24c0,1.5.33,5.87.61,8.37h-10.53c.39-2.38.67-6.1.67-8.37v-31.64c0-2.22-.22-5.1-.67-7.21h10.47c-.22,2.11-.55,4.54-.55,7.21v7.59c7.48,2.16,18.23,6.1,22.89,8.37l-3.82,9.37Z"/>
        <path class="cls-1" d="m566.07,137.97c-.5,1.22-1.33,4.6-1.55,5.6-.61,2.83-2.6,14.46-2.6,19.56,0,.17,0,1.05.05,1.28.72-1.55,1.39-2.66,2.11-4.21l4.05,3.16c-1.66,4.99-3.38,11.03-3.99,14.13-.17.78-.33,2.11-.33,2.61,0,.61,0,1.61.06,2.49l-7.65.5c-1.11-3.71-2.22-10.64-2.22-18.07,0-8.42,1.61-17.57,2.16-21.61.22-1.66.61-4.16.67-6.21l9.25.78Zm12.97,27.38c-.39,1.72-.55,2.94-.55,4.38,0,2.44,2.27,3.32,6.76,3.32,4.93,0,8.87-.44,13.85-1.44l.17,8.98c-3.6.67-7.98,1.05-14.46,1.05-9.59,0-14.35-3.6-14.35-9.42,0-2.49.39-4.88,1-7.54l7.59.67Zm18.51-24.11v8.59c-7.21.55-16.79.61-24.11,0l-.06-8.53c7.15.89,18.01.61,24.16-.06Z"/>
        <path class="cls-1" d="m625.96,141.68c5.15-.44,13.47-1.11,23.5-2,5.49-.44,11.97-.78,15.96-.94l.06,8.54c-2.83.05-7.48.05-10.53.67-5.93,1.33-11.03,7.76-11.03,14.24,0,8.09,7.59,11.25,17.07,11.8l-3.1,9.25c-12.25-.94-22.72-7.59-22.72-19.29,0-7.54,3.99-13.36,6.93-16.02-4.71.5-14.35,1.61-20.95,3.05l-.83-9.03c2.22-.06,4.6-.17,5.65-.28Z"/>
        <path class="cls-1" d="m687.25,135.25h25.71v7.04h-6.65v3.38h5.65v39.13h-6.32v-2.55h-11.53v3.33h-6.04v-39.9h6.32v-3.38h-7.15v-7.04Zm16.52,29.71c-2.55,0-3.27-.89-3.27-4.49v-8.2h-1.28v4.38c0,2.99-.39,6.93-2.49,9.59-.5-.61-1.83-1.72-2.6-2.22v3.94h11.53v-2.99h-1.88Zm-9.64-12.69v11.42c1.55-2.16,1.66-4.82,1.66-7.09v-4.32h-1.66Zm11.53,23.83v-2.72h-11.53v2.72h11.53Zm-4.49-33.81h-1.66v3.38h1.66v-3.38Zm4.49,9.98h-1.72v8.15c0,.78.06.83.33.83h.33c.5,0,.61-.06.72-.22.11.11.22.17.33.28v-9.03Zm24.22,25.38c1.88,0,2.22-1.27,2.55-8.37,1.72,1.33,5.1,2.71,7.2,3.21-.78,9.64-2.83,12.64-9.03,12.64h-6.87c-6.76,0-8.92-2.27-8.92-10.14v-22.61h14.85v-8.76h-15.07v-7.76h22.89v27.43h-7.81v-3.27h-6.87v14.91c0,2.44.28,2.72,2.22,2.72h4.88Z"/>
        <path class="cls-1" d="m777.58,135.86c-1.39,3.38-3.05,6.93-4.93,10.31v39.62h-7.65v-28.1c-1.22,1.55-2.49,2.94-3.77,4.21-.66-1.94-2.77-6.37-4.1-8.37,5.1-4.82,10.09-12.47,12.97-20.12l7.48,2.44Zm33.31,7.43v6.43h-35.47v-6.43h35.47Zm-32.2,24.38h29.48v18.07h-8.15v-1.77h-13.63v1.94h-7.7v-18.23Zm28.54-9.92h-27.49v-6.21h27.49v6.21Zm-27.49,1.83h27.21v6.21h-27.21v-6.21Zm26.49-18.12h-25.49v-6.21h25.49v6.21Zm-19.84,32.37v3.88h13.63v-3.88h-13.63Z"/>
        <path class="cls-1" d="m877.96,142.79v28.82h-8.48v-2.6h-10.7v16.96h-8.53v-16.96h-10.64v2.88h-8.09v-29.1h18.73v-9.48h8.53v9.48h19.18Zm-27.71,18.29v-10.36h-10.64v10.36h10.64Zm19.23,0v-10.36h-10.7v10.36h10.7Z"/>
      </g>
      <g>
        <path class="cls-1" d="m500,235.29c.16-6.8,4.08-11.29,6.12-11.03-.47-1.52-2.67-2.51-4.13-1.52,0-2.2-.1-7.79-1.99-8.73-1.88.94-1.99,6.54-1.99,8.73-1.46-.99-3.66,0-4.13,1.52,2.04-.26,5.96,4.23,6.12,11.03Z"/>
        <path class="cls-1" d="m500,260.65c2.45-1.26,2.58-8.74,2.58-11.67,1.9,1.33,6.78.9,7.06-2.03-3.21.34-9.44-5.66-9.64-14.74-.2,9.08-6.43,15.09-9.64,14.74.27,2.93,5.15,3.35,7.06,2.03,0,2.93.14,10.41,2.58,11.67Z"/>
        <path class="cls-1" d="m502.12,233.03s-.95-.5-2.12-.5-2.12.5-2.12.5c0,0,.95.5,2.12.5s2.12-.5,2.12-.5Z"/>
        <path class="cls-1" d="m428,231.93c2.74.45,4.28-1.16,3.48-3.85-.39-1.13-1.5-1.75-2.65-1.92-2.36-.53-4.88.58-5.85,2.76-1.25,2.81-.91,6.97,1.56,9,4.23,3.06,9.8.42,13.18-2.74,2.81-2.49,5.5-5.13,8.65-7.24,3.23-2.18,6.99-3.79,10.84-4.37,6.31-.9,13.98.44,17.49,6.37,1.41,2.47,1.61,5.64.33,8.27-1.96,4.01-7.45,5.5-11.15,3-4.2-2.37-2.64-9.48,2.41-9.01.69.07,1.39.35,1.94.86.61.52,1.71,2.59.44,2.88-.48.08-.91-.39-.78-.86.41-2.72-3.53-2.81-4.57-.83-2.68,5.06,3.71,7.96,7.59,5.27,3.97-2.63,3.12-8.35.02-11.49-1.61-1.72-3.81-2.99-6.2-3.56-4.88-1.32-9.9.44-13.66,3.61-3.92,3.12-7.5,6.73-12.01,9.07-5.07,2.82-14.66,4.91-18.19-1.12-3.18-6.03,1.64-11.65,8.06-10.48,1.32.21,2.69.96,3.19,2.28.47,1.32.58,2.84-.29,4.05-.92,1.21-2.46,1.59-3.86,1.76-1.27.1-1.28-1.84.02-1.71h0Z"/>
        <path class="cls-1" d="m438.79,239.4c11.18.13,18.24-10.42,27.58-15.07,3.23-1.69,6.86-2.74,10.52-2.73,9.41-.25,19.36,5.1,17.77,15.8-.46,3.84-3.8,6.94-7.76,6.74-1.45.07-3.11-.09-4.51-.8-.61-.3-1.23-.73-1.82-1.14-.88-.6-1.1-1.8-.5-2.67s1.8-1.1,2.67-.5c.5.34.79.9.83,1.46.1,1.68,1.78,2.56,3.37,2.67,8.43.63,9.37-10.91,4.59-15.74-3.64-4.04-9.36-5.28-14.62-5.19-7.31.07-13.47,4.49-18.86,9.03-4.17,3.42-8.44,7.19-13.7,8.98-1.78.6-3.66.94-5.56.99-.51.02-.95-.39-.96-.9-.01-.53.43-.97.96-.95h0Z"/>
        <polygon class="cls-1" points="382.46 232.42 414.39 230.43 414.39 234.42 382.46 232.42"/>
        <path class="cls-1" d="m572,233.63c-1.4-.17-2.93-.55-3.84-1.75-1.18-1.74-.73-4.47,1.02-5.64,4.27-2.4,10.95.38,10.92,5.68-.06,10.24-12.84,8.95-19.17,5.23-4.5-2.34-8.08-5.95-12.01-9.07-3.76-3.16-8.78-4.93-13.66-3.61-2.39.57-4.59,1.84-6.2,3.56-3.1,3.14-3.95,8.86.02,11.49,3.91,2.69,10.26-.22,7.59-5.28-1.03-1.98-4.98-1.89-4.57.83.09.37-.13.75-.51.85-.5.14-.98-.35-.85-.85.18-1.53,1.46-2.78,2.95-2.88,2.11-.29,4.23,1.28,4.66,3.38,1.54,5.72-6.25,8.56-10.4,5.78-3.98-2.12-4.88-7.72-2.67-11.41,1.99-3.57,5.99-5.55,9.8-6.25,7.74-1.53,15.72,1.52,21.6,6.55,4.65,3.65,8.86,9.63,15.45,8.96,2.31-.17,4.52-1.77,5.13-4.01,1.42-4.42-.56-10.09-6.1-9.04-1.15.17-2.26.79-2.65,1.92-.33,1.06-.29,2.44.43,3.15.71.73,1.93.86,3.05.7,1.29-.14,1.32,1.84,0,1.71h0Z"/>
        <path class="cls-1" d="m561.21,241.25c-11.59-.31-18.51-11.17-27.97-16.18-3.11-1.7-6.59-2.77-10.15-2.82-9.07-.4-19.07,4.65-17.3,15.08.33,1.72,1.15,3.37,2.49,4.45,1.91,1.56,5.03,2.01,7.1.59.62-.46,1-1.14,1.05-1.87.23-2.53,3.93-2.28,3.83.25-.04.76-.53,1.31-1.13,1.67-1.71,1.34-3.97,1.89-6.04,1.73-6.63.13-9.04-6.61-7.5-12.19,1.99-7.51,10.44-10.52,17.51-10.35,7.48-.09,13.92,4.4,19.52,8.85,2.85,2.21,5.64,4.47,8.71,6.22,3.06,1.73,6.45,2.86,9.88,2.73,1.23-.02,1.29,1.85,0,1.85h0Z"/>
        <polygon class="cls-1" points="617.54 232.42 585.61 230.43 585.61 234.42 617.54 232.42"/>
      </g>
      <g>
        <path class="cls-1" d="m500,25.36c-.16,6.8-4.08,11.29-6.12,11.03.47,1.52,2.67,2.51,4.13,1.52,0,2.2.1,7.79,1.99,8.73,1.88-.94,1.99-6.54,1.99-8.73,1.46.99,3.66,0,4.13-1.52-2.04.26-5.96-4.23-6.12-11.03Z"/>
        <path class="cls-1" d="m500,0c-2.45,1.26-2.58,8.74-2.58,11.67-1.9-1.33-6.78-.9-7.06,2.03,3.21-.34,9.44,5.66,9.64,14.74.2-9.08,6.43-15.09,9.64-14.74-.27-2.93-5.15-3.35-7.06-2.03,0-2.93-.14-10.41-2.58-11.67Z"/>
        <path class="cls-1" d="m497.88,27.62s.95.5,2.12.5,2.12-.5,2.12-.5c0,0-.95-.5-2.12-.5s-2.12.5-2.12.5Z"/>
        <path class="cls-1" d="m572,28.72c-2.74-.45-4.28,1.16-3.48,3.85.39,1.13,1.5,1.75,2.65,1.92,2.36.53,4.88-.58,5.85-2.76,1.25-2.81.91-6.97-1.56-9-4.23-3.06-9.8-.42-13.18,2.74-2.81,2.49-5.5,5.13-8.65,7.24-3.23,2.18-6.99,3.79-10.84,4.37-6.31.9-13.98-.44-17.49-6.37-1.41-2.47-1.61-5.64-.33-8.27,1.96-4.01,7.45-5.5,11.15-3,4.2,2.37,2.64,9.48-2.41,9.01-.69-.07-1.39-.35-1.94-.86-.61-.52-1.71-2.59-.44-2.88.48-.08.91.39.78.86-.41,2.72,3.53,2.81,4.57.83,2.68-5.06-3.71-7.96-7.59-5.27-3.97,2.63-3.12,8.35-.02,11.49,1.61,1.72,3.81,2.99,6.2,3.56,4.88,1.32,9.9-.44,13.66-3.61,3.92-3.12,7.5-6.73,12.01-9.07,5.07-2.82,14.66-4.91,18.19,1.12,3.18,6.03-1.64,11.65-8.06,10.48-1.32-.21-2.69-.96-3.19-2.28-.47-1.32-.58-2.84.29-4.05.92-1.21,2.46-1.59,3.86-1.76,1.27-.1,1.28,1.84-.02,1.71h0Z"/>
        <path class="cls-1" d="m561.21,21.24c-11.18-.13-18.24,10.42-27.58,15.07-3.23,1.69-6.86,2.74-10.52,2.73-9.41.25-19.36-5.1-17.77-15.8.46-3.84,3.8-6.94,7.76-6.74,1.45-.07,3.11.09,4.51.8.61.3,1.23.73,1.82,1.14.88.6,1.1,1.8.5,2.67s-1.8,1.1-2.67.5c-.5-.34-.79-.9-.83-1.46-.1-1.68-1.78-2.56-3.37-2.67-8.43-.63-9.37,10.91-4.59,15.74,3.64,4.04,9.36,5.28,14.62,5.19,7.31-.07,13.47-4.49,18.86-9.03,4.17-3.42,8.44-7.19,13.7-8.98,1.78-.6,3.66-.94,5.56-.99.51-.02.95.39.96.9.01.53-.43.97-.96.95h0Z"/>
        <polygon class="cls-1" points="617.54 28.22 585.61 30.22 585.61 26.22 617.54 28.22"/>
        <path class="cls-1" d="m428,27.01c1.4.17,2.93.55,3.84,1.75,1.18,1.74.73,4.47-1.02,5.64-4.27,2.4-10.95-.38-10.92-5.68.06-10.24,12.84-8.95,19.17-5.23,4.5,2.34,8.08,5.95,12.01,9.07,3.76,3.16,8.78,4.93,13.66,3.61,2.39-.57,4.59-1.84,6.2-3.56,3.1-3.14,3.95-8.86-.02-11.49-3.91-2.69-10.26.22-7.59,5.28,1.03,1.98,4.98,1.89,4.57-.83-.09-.37.13-.75.51-.85.5-.14.98.35.85.85-.18,1.53-1.46,2.78-2.95,2.88-2.11.29-4.23-1.28-4.66-3.38-1.54-5.72,6.25-8.56,10.4-5.78,3.98,2.12,4.88,7.72,2.67,11.41-1.99,3.57-5.99,5.55-9.8,6.25-7.74,1.53-15.72-1.52-21.6-6.55-4.65-3.65-8.86-9.63-15.45-8.96-2.31.17-4.52,1.77-5.13,4.01-1.42,4.42.56,10.09,6.1,9.04,1.15-.17,2.26-.79,2.65-1.92.33-1.06.29-2.44-.43-3.15-.71-.73-1.93-.86-3.05-.7-1.29.14-1.32-1.84,0-1.71h0Z"/>
        <path class="cls-1" d="m438.79,19.4c11.59.31,18.51,11.17,27.97,16.18,3.11,1.7,6.59,2.77,10.15,2.82,9.07.4,19.07-4.65,17.3-15.08-.33-1.72-1.15-3.37-2.49-4.45-1.91-1.56-5.03-2.01-7.1-.59-.62.46-1,1.14-1.05,1.87-.23,2.53-3.93,2.28-3.83-.25.04-.76.53-1.31,1.13-1.67,1.71-1.34,3.97-1.89,6.04-1.73,6.63-.13,9.04,6.61,7.5,12.19-1.99,7.51-10.44,10.52-17.51,10.35-7.48.09-13.92-4.4-19.52-8.85-2.85-2.21-5.64-4.47-8.71-6.22-3.06-1.73-6.45-2.86-9.88-2.73-1.23.02-1.29-1.85,0-1.85h0Z"/>
        <polygon class="cls-1" points="382.46 28.22 414.39 30.22 414.39 26.22 382.46 28.22"/>
      </g>
    </g>
  </g>
</svg>